<svg version="1.1" xmlns="http://www.w3.org/2000/svg" viewBox="0 0 621.1565017700195 132.2004569564474" width="621.1565017700195" height="132.2004569564474">
  <!-- svg-source:excalidraw -->
  
  <defs>
    <style class="style-fonts">
      @font-face {
        font-family: "Virgil";
        src: url("https://excalidraw.com/Virgil.woff2");
      }
      @font-face {
        font-family: "Cascadia";
        src: url("https://excalidraw.com/Cascadia.woff2");
      }
    </style>
    
  </defs>
  <rect x="0" y="0" width="621.1565017700195" height="132.2004569564474" fill="#ffffff"></rect><g stroke-linecap="round" transform="translate(10 11.868577316619223) rotate(0 34.540420532226506 34.540420532226506)"><path d="M0 0 C0 0, 0 0, 0 0 M0 0 C0 0, 0 0, 0 0 M0.13 12.04 C3.68 7.97, 7.22 3.89, 10.63 -0.03 M0.13 12.04 C2.54 9.28, 4.94 6.51, 10.63 -0.03 M0.27 24.08 C5.92 17.58, 11.57 11.07, 21.26 -0.07 M0.27 24.08 C7.78 15.43, 15.3 6.79, 21.26 -0.07 M-0.26 36.88 C12.5 22.2, 25.26 7.52, 31.89 -0.1 M-0.26 36.88 C7.64 27.8, 15.53 18.72, 31.89 -0.1 M-0.12 48.92 C12.93 33.9, 25.98 18.89, 42.52 -0.14 M-0.12 48.92 C15.06 31.45, 30.25 13.98, 42.52 -0.14 M0.01 60.96 C15.18 43.51, 30.35 26.05, 53.15 -0.17 M0.01 60.96 C20.27 37.65, 40.53 14.35, 53.15 -0.17 M3.42 69.23 C27.1 41.98, 50.78 14.74, 63.78 -0.21 M3.42 69.23 C22.96 46.75, 42.5 24.27, 63.78 -0.21 M14.05 69.19 C26.2 55.22, 38.35 41.24, 69.82 5.04 M14.05 69.19 C29.78 51.1, 45.5 33.01, 69.82 5.04 M24.68 69.16 C40.66 50.78, 56.63 32.4, 69.95 17.08 M24.68 69.16 C39.82 51.75, 54.95 34.34, 69.95 17.08 M34.66 69.88 C46.96 55.73, 59.26 41.58, 69.43 29.88 M34.66 69.88 C45.91 56.94, 57.15 44, 69.43 29.88 M45.29 69.84 C50.33 64.04, 55.37 58.24, 69.56 41.92 M45.29 69.84 C53.56 60.32, 61.84 50.8, 69.56 41.92 M55.92 69.81 C60.03 65.08, 64.14 60.35, 69.69 53.96 M55.92 69.81 C60.2 64.88, 64.49 59.95, 69.69 53.96 M66.55 69.77 C67.44 68.75, 68.33 67.72, 69.83 66 M66.55 69.77 C67.45 68.73, 68.36 67.69, 69.83 66 M-0.24 68.87 C-0.24 68.87, -0.24 68.87, -0.24 68.87 M-0.24 68.87 C-0.24 68.87, -0.24 68.87, -0.24 68.87 M12.55 69.39 C9.26 66.53, 5.96 63.66, -0.28 58.24 M12.55 69.39 C8.03 65.46, 3.51 61.54, -0.28 58.24 M24.59 69.26 C18.07 63.59, 11.55 57.92, -0.31 47.61 M24.59 69.26 C17.26 62.89, 9.93 56.52, -0.31 47.61 M36.63 69.13 C23.02 57.29, 9.4 45.45, -0.35 36.98 M36.63 69.13 C23.26 57.5, 9.89 45.88, -0.35 36.98 M48.68 68.99 C38.17 59.86, 27.67 50.73, 0.37 27.01 M48.68 68.99 C31.81 54.34, 14.95 39.68, 0.37 27.01 M60.72 68.86 C48.22 58, 35.72 47.14, 0.34 16.38 M60.72 68.86 C38.03 49.14, 15.35 29.43, 0.34 16.38 M69.74 66.1 C51.98 50.67, 34.23 35.23, 0.31 5.75 M69.74 66.1 C51.12 49.91, 32.49 33.73, 0.31 5.75 M69.7 55.47 C52.18 40.24, 34.66 25.01, 4.8 -0.95 M69.7 55.47 C53.73 41.59, 37.76 27.71, 4.8 -0.95 M69.67 44.84 C53.6 30.88, 37.54 16.91, 17.59 -0.43 M69.67 44.84 C53.76 31.01, 37.86 17.19, 17.59 -0.43 M69.64 34.21 C59.67 25.55, 49.71 16.9, 29.64 -0.56 M69.64 34.21 C57.48 23.65, 45.33 13.08, 29.64 -0.56 M69.6 23.58 C59.75 15.02, 49.89 6.45, 41.68 -0.69 M69.6 23.58 C59.99 15.22, 50.37 6.87, 41.68 -0.69 M69.57 12.95 C64.31 8.39, 59.06 3.82, 53.72 -0.82 M69.57 12.95 C65.45 9.37, 61.33 5.79, 53.72 -0.82 M69.53 2.32 C68.36 1.3, 67.18 0.28, 65.76 -0.96 M69.53 2.32 C68.03 1.02, 66.53 -0.29, 65.76 -0.96" stroke="#e6498088" stroke-width="1" fill="none"></path><path d="M0 0 C16.48 0, 32.97 0, 69.08 0 M0 0 C23.76 0, 47.52 0, 69.08 0 M69.08 0 C69.08 25.86, 69.08 51.71, 69.08 69.08 M69.08 0 C69.08 15.04, 69.08 30.08, 69.08 69.08 M69.08 69.08 C53.74 69.08, 38.41 69.08, 0 69.08 M69.08 69.08 C43.1 69.08, 17.12 69.08, 0 69.08 M0 69.08 C0 45.74, 0 22.4, 0 0 M0 69.08 C0 47.3, 0 25.53, 0 0" stroke="#000000" stroke-width="2" fill="none"></path></g><g stroke-linecap="round" transform="translate(20.27972374262049 43.67221886942116) rotate(0 3.1502391720660796 3.1502391720660796)"><path d="M6.3 3.15 C6.3 3.33, 6.28 3.52, 6.25 3.7 C6.22 3.88, 6.17 4.06, 6.11 4.23 C6.05 4.4, 5.97 4.57, 5.88 4.73 C5.79 4.88, 5.68 5.04, 5.56 5.18 C5.45 5.31, 5.31 5.45, 5.18 5.56 C5.04 5.68, 4.88 5.79, 4.73 5.88 C4.57 5.97, 4.4 6.05, 4.23 6.11 C4.06 6.17, 3.88 6.22, 3.7 6.25 C3.52 6.28, 3.33 6.3, 3.15 6.3 C2.97 6.3, 2.78 6.28, 2.6 6.25 C2.42 6.22, 2.24 6.17, 2.07 6.11 C1.9 6.05, 1.73 5.97, 1.58 5.88 C1.42 5.79, 1.26 5.68, 1.13 5.56 C0.99 5.45, 0.85 5.31, 0.74 5.18 C0.62 5.04, 0.51 4.88, 0.42 4.73 C0.33 4.57, 0.25 4.4, 0.19 4.23 C0.13 4.06, 0.08 3.88, 0.05 3.7 C0.02 3.52, 0 3.33, 0 3.15 C0 2.97, 0.02 2.78, 0.05 2.6 C0.08 2.42, 0.13 2.24, 0.19 2.07 C0.25 1.9, 0.33 1.73, 0.42 1.58 C0.51 1.42, 0.62 1.26, 0.74 1.13 C0.85 0.99, 0.99 0.85, 1.13 0.74 C1.26 0.62, 1.42 0.51, 1.58 0.42 C1.73 0.33, 1.9 0.25, 2.07 0.19 C2.24 0.13, 2.42 0.08, 2.6 0.05 C2.78 0.02, 2.97 0, 3.15 0 C3.33 0, 3.52 0.02, 3.7 0.05 C3.88 0.08, 4.06 0.13, 4.23 0.19 C4.4 0.25, 4.57 0.33, 4.73 0.42 C4.88 0.51, 5.04 0.62, 5.18 0.74 C5.31 0.85, 5.45 0.99, 5.56 1.13 C5.68 1.26, 5.79 1.42, 5.88 1.58 C5.97 1.73, 6.05 1.9, 6.11 2.07 C6.17 2.24, 6.22 2.42, 6.25 2.6 C6.28 2.78, 6.29 3.06, 6.3 3.15 C6.31 3.24, 6.31 3.06, 6.3 3.15" stroke="none" stroke-width="0" fill="#e6498088"></path><path d="M6.3 3.15 C6.3 3.33, 6.28 3.52, 6.25 3.7 C6.22 3.88, 6.17 4.06, 6.11 4.23 C6.05 4.4, 5.97 4.57, 5.88 4.73 C5.79 4.88, 5.68 5.04, 5.56 5.18 C5.45 5.31, 5.31 5.45, 5.18 5.56 C5.04 5.68, 4.88 5.79, 4.73 5.88 C4.57 5.97, 4.4 6.05, 4.23 6.11 C4.06 6.17, 3.88 6.22, 3.7 6.25 C3.52 6.28, 3.33 6.3, 3.15 6.3 C2.97 6.3, 2.78 6.28, 2.6 6.25 C2.42 6.22, 2.24 6.17, 2.07 6.11 C1.9 6.05, 1.73 5.97, 1.58 5.88 C1.42 5.79, 1.26 5.68, 1.13 5.56 C0.99 5.45, 0.85 5.31, 0.74 5.18 C0.62 5.04, 0.51 4.88, 0.42 4.73 C0.33 4.57, 0.25 4.4, 0.19 4.23 C0.13 4.06, 0.08 3.88, 0.05 3.7 C0.02 3.52, 0 3.33, 0 3.15 C0 2.97, 0.02 2.78, 0.05 2.6 C0.08 2.42, 0.13 2.24, 0.19 2.07 C0.25 1.9, 0.33 1.73, 0.42 1.58 C0.51 1.42, 0.62 1.26, 0.74 1.13 C0.85 0.99, 0.99 0.85, 1.13 0.74 C1.26 0.62, 1.42 0.51, 1.58 0.42 C1.73 0.33, 1.9 0.25, 2.07 0.19 C2.24 0.13, 2.42 0.08, 2.6 0.05 C2.78 0.02, 2.97 0, 3.15 0 C3.33 0, 3.52 0.02, 3.7 0.05 C3.88 0.08, 4.06 0.13, 4.23 0.19 C4.4 0.25, 4.57 0.33, 4.73 0.42 C4.88 0.51, 5.04 0.62, 5.18 0.74 C5.31 0.85, 5.45 0.99, 5.56 1.13 C5.68 1.26, 5.79 1.42, 5.88 1.58 C5.97 1.73, 6.05 1.9, 6.11 2.07 C6.17 2.24, 6.22 2.42, 6.25 2.6 C6.28 2.78, 6.29 3.06, 6.3 3.15 C6.31 3.24, 6.31 3.06, 6.3 3.15" stroke="#000000" stroke-width="2" fill="none"></path></g><g stroke-linecap="round" transform="translate(62.799278877535926 43.61839009382447) rotate(0 3.150239172066051 3.1502391720660796)"><path d="M6.3 3.15 C6.3 3.33, 6.28 3.52, 6.25 3.7 C6.22 3.88, 6.17 4.06, 6.11 4.23 C6.05 4.4, 5.97 4.57, 5.88 4.73 C5.79 4.88, 5.68 5.04, 5.56 5.18 C5.45 5.31, 5.31 5.45, 5.18 5.56 C5.04 5.68, 4.88 5.79, 4.73 5.88 C4.57 5.97, 4.4 6.05, 4.23 6.11 C4.06 6.17, 3.88 6.22, 3.7 6.25 C3.52 6.28, 3.33 6.3, 3.15 6.3 C2.97 6.3, 2.78 6.28, 2.6 6.25 C2.42 6.22, 2.24 6.17, 2.07 6.11 C1.9 6.05, 1.73 5.97, 1.58 5.88 C1.42 5.79, 1.26 5.68, 1.13 5.56 C0.99 5.45, 0.85 5.31, 0.74 5.18 C0.62 5.04, 0.51 4.88, 0.42 4.73 C0.33 4.57, 0.25 4.4, 0.19 4.23 C0.13 4.06, 0.08 3.88, 0.05 3.7 C0.02 3.52, 0 3.33, 0 3.15 C0 2.97, 0.02 2.78, 0.05 2.6 C0.08 2.42, 0.13 2.24, 0.19 2.07 C0.25 1.9, 0.33 1.73, 0.42 1.58 C0.51 1.42, 0.62 1.26, 0.74 1.13 C0.85 0.99, 0.99 0.85, 1.13 0.74 C1.26 0.62, 1.42 0.51, 1.58 0.42 C1.73 0.33, 1.9 0.25, 2.07 0.19 C2.24 0.13, 2.42 0.08, 2.6 0.05 C2.78 0.02, 2.97 0, 3.15 0 C3.33 0, 3.52 0.02, 3.7 0.05 C3.88 0.08, 4.06 0.13, 4.23 0.19 C4.4 0.25, 4.57 0.33, 4.73 0.42 C4.88 0.51, 5.04 0.62, 5.18 0.74 C5.31 0.85, 5.45 0.99, 5.56 1.13 C5.68 1.26, 5.79 1.42, 5.88 1.58 C5.97 1.73, 6.05 1.9, 6.11 2.07 C6.17 2.24, 6.22 2.42, 6.25 2.6 C6.28 2.78, 6.29 3.06, 6.3 3.15 C6.31 3.24, 6.31 3.06, 6.3 3.15" stroke="none" stroke-width="0" fill="#e6498088"></path><path d="M6.3 3.15 C6.3 3.33, 6.28 3.52, 6.25 3.7 C6.22 3.88, 6.17 4.06, 6.11 4.23 C6.05 4.4, 5.97 4.57, 5.88 4.73 C5.79 4.88, 5.68 5.04, 5.56 5.18 C5.45 5.31, 5.31 5.45, 5.18 5.56 C5.04 5.68, 4.88 5.79, 4.73 5.88 C4.57 5.97, 4.4 6.05, 4.23 6.11 C4.06 6.17, 3.88 6.22, 3.7 6.25 C3.52 6.28, 3.33 6.3, 3.15 6.3 C2.97 6.3, 2.78 6.28, 2.6 6.25 C2.42 6.22, 2.24 6.17, 2.07 6.11 C1.9 6.05, 1.73 5.97, 1.58 5.88 C1.42 5.79, 1.26 5.68, 1.13 5.56 C0.99 5.45, 0.85 5.31, 0.74 5.18 C0.62 5.04, 0.51 4.88, 0.42 4.73 C0.33 4.57, 0.25 4.4, 0.19 4.23 C0.13 4.06, 0.08 3.88, 0.05 3.7 C0.02 3.52, 0 3.33, 0 3.15 C0 2.97, 0.02 2.78, 0.05 2.6 C0.08 2.42, 0.13 2.24, 0.19 2.07 C0.25 1.9, 0.33 1.73, 0.42 1.58 C0.51 1.42, 0.62 1.26, 0.74 1.13 C0.85 0.99, 0.99 0.85, 1.13 0.74 C1.26 0.62, 1.42 0.51, 1.58 0.42 C1.73 0.33, 1.9 0.25, 2.07 0.19 C2.24 0.13, 2.42 0.08, 2.6 0.05 C2.78 0.02, 2.97 0, 3.15 0 C3.33 0, 3.52 0.02, 3.7 0.05 C3.88 0.08, 4.06 0.13, 4.23 0.19 C4.4 0.25, 4.57 0.33, 4.73 0.42 C4.88 0.51, 5.04 0.62, 5.18 0.74 C5.31 0.85, 5.45 0.99, 5.56 1.13 C5.68 1.26, 5.79 1.42, 5.88 1.58 C5.97 1.73, 6.05 1.9, 6.11 2.07 C6.17 2.24, 6.22 2.42, 6.25 2.6 C6.28 2.78, 6.29 3.06, 6.3 3.15 C6.31 3.24, 6.31 3.06, 6.3 3.15" stroke="#000000" stroke-width="2" fill="none"></path></g><g stroke-linecap="round" transform="translate(59.4353825942535 32.34873878851948) rotate(0 3.150239172066051 3.1502391720660796)"><path d="M6.3 3.15 C6.3 3.33, 6.28 3.52, 6.25 3.7 C6.22 3.88, 6.17 4.06, 6.11 4.23 C6.05 4.4, 5.97 4.57, 5.88 4.73 C5.79 4.88, 5.68 5.04, 5.56 5.18 C5.45 5.31, 5.31 5.45, 5.18 5.56 C5.04 5.68, 4.88 5.79, 4.73 5.88 C4.57 5.97, 4.4 6.05, 4.23 6.11 C4.06 6.17, 3.88 6.22, 3.7 6.25 C3.52 6.28, 3.33 6.3, 3.15 6.3 C2.97 6.3, 2.78 6.28, 2.6 6.25 C2.42 6.22, 2.24 6.17, 2.07 6.11 C1.9 6.05, 1.73 5.97, 1.58 5.88 C1.42 5.79, 1.26 5.68, 1.13 5.56 C0.99 5.45, 0.85 5.31, 0.74 5.18 C0.62 5.04, 0.51 4.88, 0.42 4.73 C0.33 4.57, 0.25 4.4, 0.19 4.23 C0.13 4.06, 0.08 3.88, 0.05 3.7 C0.02 3.52, 0 3.33, 0 3.15 C0 2.97, 0.02 2.78, 0.05 2.6 C0.08 2.42, 0.13 2.24, 0.19 2.07 C0.25 1.9, 0.33 1.73, 0.42 1.58 C0.51 1.42, 0.62 1.26, 0.74 1.13 C0.85 0.99, 0.99 0.85, 1.13 0.74 C1.26 0.62, 1.42 0.51, 1.58 0.42 C1.73 0.33, 1.9 0.25, 2.07 0.19 C2.24 0.13, 2.42 0.08, 2.6 0.05 C2.78 0.02, 2.97 0, 3.15 0 C3.33 0, 3.52 0.02, 3.7 0.05 C3.88 0.08, 4.06 0.13, 4.23 0.19 C4.4 0.25, 4.57 0.33, 4.73 0.42 C4.88 0.51, 5.04 0.62, 5.18 0.74 C5.31 0.85, 5.45 0.99, 5.56 1.13 C5.68 1.26, 5.79 1.42, 5.88 1.58 C5.97 1.73, 6.05 1.9, 6.11 2.07 C6.17 2.24, 6.22 2.42, 6.25 2.6 C6.28 2.78, 6.29 3.06, 6.3 3.15 C6.31 3.24, 6.31 3.06, 6.3 3.15" stroke="none" stroke-width="0" fill="#e6498088"></path><path d="M6.3 3.15 C6.3 3.33, 6.28 3.52, 6.25 3.7 C6.22 3.88, 6.17 4.06, 6.11 4.23 C6.05 4.4, 5.97 4.57, 5.88 4.73 C5.79 4.88, 5.68 5.04, 5.56 5.18 C5.45 5.31, 5.31 5.45, 5.18 5.56 C5.04 5.68, 4.88 5.79, 4.73 5.88 C4.57 5.97, 4.4 6.05, 4.23 6.11 C4.06 6.17, 3.88 6.22, 3.7 6.25 C3.52 6.28, 3.33 6.3, 3.15 6.3 C2.97 6.3, 2.78 6.28, 2.6 6.25 C2.42 6.22, 2.24 6.17, 2.07 6.11 C1.9 6.05, 1.73 5.97, 1.58 5.88 C1.42 5.79, 1.26 5.68, 1.13 5.56 C0.99 5.45, 0.85 5.31, 0.74 5.18 C0.62 5.04, 0.51 4.88, 0.42 4.73 C0.33 4.57, 0.25 4.4, 0.19 4.23 C0.13 4.06, 0.08 3.88, 0.05 3.7 C0.02 3.52, 0 3.33, 0 3.15 C0 2.97, 0.02 2.78, 0.05 2.6 C0.08 2.42, 0.13 2.24, 0.19 2.07 C0.25 1.9, 0.33 1.73, 0.42 1.58 C0.51 1.42, 0.62 1.26, 0.74 1.13 C0.85 0.99, 0.99 0.85, 1.13 0.74 C1.26 0.62, 1.42 0.51, 1.58 0.42 C1.73 0.33, 1.9 0.25, 2.07 0.19 C2.24 0.13, 2.42 0.08, 2.6 0.05 C2.78 0.02, 2.97 0, 3.15 0 C3.33 0, 3.52 0.02, 3.7 0.05 C3.88 0.08, 4.06 0.13, 4.23 0.19 C4.4 0.25, 4.57 0.33, 4.73 0.42 C4.88 0.51, 5.04 0.62, 5.18 0.74 C5.31 0.85, 5.45 0.99, 5.56 1.13 C5.68 1.26, 5.79 1.42, 5.88 1.58 C5.97 1.73, 6.05 1.9, 6.11 2.07 C6.17 2.24, 6.22 2.42, 6.25 2.6 C6.28 2.78, 6.29 3.06, 6.3 3.15 C6.31 3.24, 6.31 3.06, 6.3 3.15" stroke="#000000" stroke-width="2" fill="none"></path></g><g stroke-linecap="round" transform="translate(59.46867219306466 56.02293971537421) rotate(0 3.150239172066051 3.1502391720660796)"><path d="M6.3 3.15 C6.3 3.33, 6.28 3.52, 6.25 3.7 C6.22 3.88, 6.17 4.06, 6.11 4.23 C6.05 4.4, 5.97 4.57, 5.88 4.73 C5.79 4.88, 5.68 5.04, 5.56 5.18 C5.45 5.31, 5.31 5.45, 5.18 5.56 C5.04 5.68, 4.88 5.79, 4.73 5.88 C4.57 5.97, 4.4 6.05, 4.23 6.11 C4.06 6.17, 3.88 6.22, 3.7 6.25 C3.52 6.28, 3.33 6.3, 3.15 6.3 C2.97 6.3, 2.78 6.28, 2.6 6.25 C2.42 6.22, 2.24 6.17, 2.07 6.11 C1.9 6.05, 1.73 5.97, 1.58 5.88 C1.42 5.79, 1.26 5.68, 1.13 5.56 C0.99 5.45, 0.85 5.31, 0.74 5.18 C0.62 5.04, 0.51 4.88, 0.42 4.73 C0.33 4.57, 0.25 4.4, 0.19 4.23 C0.13 4.06, 0.08 3.88, 0.05 3.7 C0.02 3.52, 0 3.33, 0 3.15 C0 2.97, 0.02 2.78, 0.05 2.6 C0.08 2.42, 0.13 2.24, 0.19 2.07 C0.25 1.9, 0.33 1.73, 0.42 1.58 C0.51 1.42, 0.62 1.26, 0.74 1.13 C0.85 0.99, 0.99 0.85, 1.13 0.74 C1.26 0.62, 1.42 0.51, 1.58 0.42 C1.73 0.33, 1.9 0.25, 2.07 0.19 C2.24 0.13, 2.42 0.08, 2.6 0.05 C2.78 0.02, 2.97 0, 3.15 0 C3.33 0, 3.52 0.02, 3.7 0.05 C3.88 0.08, 4.06 0.13, 4.23 0.19 C4.4 0.25, 4.57 0.33, 4.73 0.42 C4.88 0.51, 5.04 0.62, 5.18 0.74 C5.31 0.85, 5.45 0.99, 5.56 1.13 C5.68 1.26, 5.79 1.42, 5.88 1.58 C5.97 1.73, 6.05 1.9, 6.11 2.07 C6.17 2.24, 6.22 2.42, 6.25 2.6 C6.28 2.78, 6.29 3.06, 6.3 3.15 C6.31 3.24, 6.31 3.06, 6.3 3.15" stroke="none" stroke-width="0" fill="#e6498088"></path><path d="M6.3 3.15 C6.3 3.33, 6.28 3.52, 6.25 3.7 C6.22 3.88, 6.17 4.06, 6.11 4.23 C6.05 4.4, 5.97 4.57, 5.88 4.73 C5.79 4.88, 5.68 5.04, 5.56 5.18 C5.45 5.31, 5.31 5.45, 5.18 5.56 C5.04 5.68, 4.88 5.79, 4.73 5.88 C4.57 5.97, 4.4 6.05, 4.23 6.11 C4.06 6.17, 3.88 6.22, 3.7 6.25 C3.52 6.28, 3.33 6.3, 3.15 6.3 C2.97 6.3, 2.78 6.28, 2.6 6.25 C2.42 6.22, 2.24 6.17, 2.07 6.11 C1.9 6.05, 1.73 5.97, 1.58 5.88 C1.42 5.79, 1.26 5.68, 1.13 5.56 C0.99 5.45, 0.85 5.31, 0.74 5.18 C0.62 5.04, 0.51 4.88, 0.42 4.73 C0.33 4.57, 0.25 4.4, 0.19 4.23 C0.13 4.06, 0.08 3.88, 0.05 3.7 C0.02 3.52, 0 3.33, 0 3.15 C0 2.97, 0.02 2.78, 0.05 2.6 C0.08 2.42, 0.13 2.24, 0.19 2.07 C0.25 1.9, 0.33 1.73, 0.42 1.58 C0.51 1.42, 0.62 1.26, 0.74 1.13 C0.85 0.99, 0.99 0.85, 1.13 0.74 C1.26 0.62, 1.42 0.51, 1.58 0.42 C1.73 0.33, 1.9 0.25, 2.07 0.19 C2.24 0.13, 2.42 0.08, 2.6 0.05 C2.78 0.02, 2.97 0, 3.15 0 C3.33 0, 3.52 0.02, 3.7 0.05 C3.88 0.08, 4.06 0.13, 4.23 0.19 C4.4 0.25, 4.57 0.33, 4.73 0.42 C4.88 0.51, 5.04 0.62, 5.18 0.74 C5.31 0.85, 5.45 0.99, 5.56 1.13 C5.68 1.26, 5.79 1.42, 5.88 1.58 C5.97 1.73, 6.05 1.9, 6.11 2.07 C6.17 2.24, 6.22 2.42, 6.25 2.6 C6.28 2.78, 6.29 3.06, 6.3 3.15 C6.31 3.24, 6.31 3.06, 6.3 3.15" stroke="#000000" stroke-width="2" fill="none"></path></g><g stroke-linecap="round"><g transform="translate(46.423179206691884 46.86050681334734) rotate(0 8.353053520007904 0)"><path d="M0 0 C2.78 0, 13.92 0, 16.71 0 M0 0 C2.78 0, 13.92 0, 16.71 0" stroke="#000000" stroke-width="2" fill="none"></path></g></g><mask></mask><g stroke-linecap="round"><g transform="translate(54.80485041514635 35.055313170662316) rotate(0 0 12.438312452657044)"><path d="M0 0 C0 4.15, 0 20.73, 0 24.88 M0 0 C0 4.15, 0 20.73, 0 24.88" stroke="#000000" stroke-width="2" fill="none"></path></g></g><mask></mask><g stroke-linecap="round"><g transform="translate(59.622511846647285 35.602629259146624) rotate(0 -2.270754284612451 0)"><path d="M0 0 C-0.76 0, -3.78 0, -4.54 0 M0 0 C-0.76 0, -3.78 0, -4.54 0" stroke="#000000" stroke-width="2" fill="none"></path></g></g><mask></mask><g stroke-linecap="round"><g transform="translate(59.58637614153167 59.4190426450582) rotate(0 -2.270754284612451 0)"><path d="M0 0 C-0.76 0, -3.78 0, -4.54 0 M0 0 C-0.76 0, -3.78 0, -4.54 0" stroke="#000000" stroke-width="2" fill="none"></path></g></g><mask></mask><g stroke-linecap="round" transform="translate(32.56273545095087 38.26119606290672) rotate(0 7.185445383802119 2.273493069397574)"><path d="M14.37 2.27 C14.37 2.41, 14.33 2.54, 14.26 2.67 C14.19 2.8, 14.08 2.93, 13.94 3.05 C13.8 3.17, 13.62 3.3, 13.41 3.41 C13.2 3.52, 12.96 3.63, 12.69 3.73 C12.42 3.84, 12.12 3.93, 11.8 4.02 C11.49 4.1, 11.14 4.18, 10.78 4.24 C10.42 4.31, 10.03 4.36, 9.64 4.41 C9.25 4.45, 8.84 4.49, 8.43 4.51 C8.02 4.54, 7.6 4.55, 7.19 4.55 C6.77 4.55, 6.35 4.54, 5.94 4.51 C5.53 4.49, 5.12 4.45, 4.73 4.41 C4.34 4.36, 3.95 4.31, 3.59 4.24 C3.23 4.18, 2.89 4.1, 2.57 4.02 C2.25 3.93, 1.95 3.84, 1.68 3.73 C1.41 3.63, 1.17 3.52, 0.96 3.41 C0.75 3.3, 0.58 3.17, 0.43 3.05 C0.29 2.93, 0.18 2.8, 0.11 2.67 C0.04 2.54, 0 2.41, 0 2.27 C0 2.14, 0.04 2.01, 0.11 1.88 C0.18 1.75, 0.29 1.62, 0.43 1.5 C0.58 1.37, 0.75 1.25, 0.96 1.14 C1.17 1.02, 1.41 0.91, 1.68 0.81 C1.95 0.71, 2.25 0.62, 2.57 0.53 C2.89 0.45, 3.23 0.37, 3.59 0.3 C3.95 0.24, 4.34 0.18, 4.73 0.14 C5.12 0.09, 5.53 0.06, 5.94 0.03 C6.35 0.01, 6.77 0, 7.19 0 C7.6 0, 8.02 0.01, 8.43 0.03 C8.84 0.06, 9.25 0.09, 9.64 0.14 C10.03 0.18, 10.42 0.24, 10.78 0.3 C11.14 0.37, 11.49 0.45, 11.8 0.53 C12.12 0.62, 12.42 0.71, 12.69 0.81 C12.96 0.91, 13.2 1.02, 13.41 1.14 C13.62 1.25, 13.8 1.37, 13.94 1.5 C14.08 1.62, 14.19 1.75, 14.26 1.88 C14.33 2.01, 14.35 2.21, 14.37 2.27 C14.39 2.34, 14.39 2.21, 14.37 2.27" stroke="none" stroke-width="0" fill="#e6498088"></path><path d="M14.37 2.27 C14.37 2.41, 14.33 2.54, 14.26 2.67 C14.19 2.8, 14.08 2.93, 13.94 3.05 C13.8 3.17, 13.62 3.3, 13.41 3.41 C13.2 3.52, 12.96 3.63, 12.69 3.73 C12.42 3.84, 12.12 3.93, 11.8 4.02 C11.49 4.1, 11.14 4.18, 10.78 4.24 C10.42 4.31, 10.03 4.36, 9.64 4.41 C9.25 4.45, 8.84 4.49, 8.43 4.51 C8.02 4.54, 7.6 4.55, 7.19 4.55 C6.77 4.55, 6.35 4.54, 5.94 4.51 C5.53 4.49, 5.12 4.45, 4.73 4.41 C4.34 4.36, 3.95 4.31, 3.59 4.24 C3.23 4.18, 2.89 4.1, 2.57 4.02 C2.25 3.93, 1.95 3.84, 1.68 3.73 C1.41 3.63, 1.17 3.52, 0.96 3.41 C0.75 3.3, 0.58 3.17, 0.43 3.05 C0.29 2.93, 0.18 2.8, 0.11 2.67 C0.04 2.54, 0 2.41, 0 2.27 C0 2.14, 0.04 2.01, 0.11 1.88 C0.18 1.75, 0.29 1.62, 0.43 1.5 C0.58 1.37, 0.75 1.25, 0.96 1.14 C1.17 1.02, 1.41 0.91, 1.68 0.81 C1.95 0.71, 2.25 0.62, 2.57 0.53 C2.89 0.45, 3.23 0.37, 3.59 0.3 C3.95 0.24, 4.34 0.18, 4.73 0.14 C5.12 0.09, 5.53 0.06, 5.94 0.03 C6.35 0.01, 6.77 0, 7.19 0 C7.6 0, 8.02 0.01, 8.43 0.03 C8.84 0.06, 9.25 0.09, 9.64 0.14 C10.03 0.18, 10.42 0.24, 10.78 0.3 C11.14 0.37, 11.49 0.45, 11.8 0.53 C12.12 0.62, 12.42 0.71, 12.69 0.81 C12.96 0.91, 13.2 1.02, 13.41 1.14 C13.62 1.25, 13.8 1.37, 13.94 1.5 C14.08 1.62, 14.19 1.75, 14.26 1.88 C14.33 2.01, 14.35 2.21, 14.37 2.27 C14.39 2.34, 14.39 2.21, 14.37 2.27" stroke="#000000" stroke-width="2" fill="none"></path></g><g stroke-linecap="round"><g transform="translate(32.9670655448233 41.29963188637993) rotate(0 7.06159274543586 7.5192862557457545)"><path d="M0 0 C1.35 2.03, 2.7 4.07, 4.98 7.5 M0 0 C1.62 2.44, 3.24 4.88, 4.98 7.5 M4.98 7.5 C5.1 10.16, 5.23 12.82, 5.35 15.36 M4.98 7.5 C5.07 9.48, 5.16 11.47, 5.35 15.36 M5.35 15.36 C6.04 15.15, 6.73 14.94, 8.45 14.43 M5.35 15.36 C6.42 15.04, 7.49 14.72, 8.45 14.43 M8.45 14.43 C8.38 11.83, 8.3 9.24, 8.26 7.65 M8.45 14.43 C8.4 12.67, 8.35 10.92, 8.26 7.65 M8.26 7.65 C9.44 6.04, 10.63 4.43, 14.12 -0.32 M8.26 7.65 C10.36 4.8, 12.46 1.94, 14.12 -0.32" stroke="#000000" stroke-width="2" fill="none"></path></g></g><mask></mask><g stroke-linecap="round"><g transform="translate(26.679832588900922 46.753975845902005) rotate(0 3.3060198612059537 0)"><path d="M0 0 C1.1 0, 5.51 0, 6.61 0 M0 0 C1.1 0, 5.51 0, 6.61 0" stroke="#000000" stroke-width="2" fill="none"></path></g></g><mask></mask><g stroke-linecap="round"><g transform="translate(23.663983558549717 43.6694108006954) rotate(0 17.40619437346743 -8.920707067303027)"><path d="M0 0 C0.43 -1.25, 1.24 -5.3, 2.56 -7.49 C3.88 -9.67, 6.05 -11.62, 7.93 -13.1 C9.82 -14.58, 11.61 -15.57, 13.87 -16.36 C16.12 -17.15, 18.8 -17.93, 21.47 -17.83 C24.15 -17.74, 27.69 -16.71, 29.91 -15.78 C32.13 -14.85, 34 -12.85, 34.81 -12.26 M0 0 C0.43 -1.25, 1.24 -5.3, 2.56 -7.49 C3.88 -9.67, 6.05 -11.62, 7.93 -13.1 C9.82 -14.58, 11.61 -15.57, 13.87 -16.36 C16.12 -17.15, 18.8 -17.93, 21.47 -17.83 C24.15 -17.74, 27.69 -16.71, 29.91 -15.78 C32.13 -14.85, 34 -12.85, 34.81 -12.26" stroke="#000000" stroke-width="2" fill="none"></path></g></g><mask></mask><g stroke-linecap="round"><g transform="translate(23.225288018592664 50.11557085532644) rotate(0 17.898407675828878 9.172967302411621)"><path d="M0 0 C0.44 1.28, 1.27 5.45, 2.63 7.7 C3.99 9.94, 6.22 11.95, 8.16 13.47 C10.1 14.99, 11.94 16.01, 14.26 16.82 C16.58 17.63, 19.33 18.44, 22.08 18.34 C24.83 18.24, 28.47 17.18, 30.76 16.23 C33.04 15.27, 34.96 13.21, 35.8 12.61 M0 0 C0.44 1.28, 1.27 5.45, 2.63 7.7 C3.99 9.94, 6.22 11.95, 8.16 13.47 C10.1 14.99, 11.94 16.01, 14.26 16.82 C16.58 17.63, 19.33 18.44, 22.08 18.34 C24.83 18.24, 28.47 17.18, 30.76 16.23 C33.04 15.27, 34.96 13.21, 35.8 12.61" stroke="#000000" stroke-width="2" fill="none"></path></g></g><mask></mask><g transform="translate(24.372642139124082 85.60123456438521) rotate(0 19.73345947265625 13.5)"><text x="0" y="0" font-family="Virgil, Segoe UI Emoji" font-size="21.229240413792002px" fill="#000000" text-anchor="start" style="white-space: pre;" direction="ltr" dominant-baseline="text-before-edge">SNS</text></g><g stroke-linecap="round" transform="translate(142 15.98234469695484) rotate(0 34.61227210454791 34.61227210454791)"><path d="M0 0 C0 0, 0 0, 0 0 M0 0 C0 0, 0 0, 0 0 M0.13 12.04 C3.54 8.12, 6.94 4.21, 10.63 -0.03 M0.13 12.04 C3.14 8.58, 6.14 5.13, 10.63 -0.03 M0.27 24.08 C8.24 14.91, 16.21 5.74, 21.26 -0.07 M0.27 24.08 C7.59 15.66, 14.91 7.24, 21.26 -0.07 M-0.26 36.88 C9.79 25.32, 19.84 13.76, 31.89 -0.1 M-0.26 36.88 C6.72 28.85, 13.71 20.81, 31.89 -0.1 M-0.12 48.92 C16.56 29.73, 33.24 10.54, 42.52 -0.14 M-0.12 48.92 C13.89 32.8, 27.9 16.68, 42.52 -0.14 M0.01 60.96 C10.77 48.59, 21.52 36.21, 53.15 -0.17 M0.01 60.96 C14.95 43.77, 29.89 26.59, 53.15 -0.17 M2.77 69.98 C16.02 54.74, 29.27 39.49, 63.78 -0.21 M2.77 69.98 C16.09 54.66, 29.41 39.33, 63.78 -0.21 M13.4 69.95 C27.85 53.32, 42.3 36.69, 69.82 5.04 M13.4 69.95 C31.11 49.57, 48.82 29.19, 69.82 5.04 M24.03 69.91 C35.75 56.43, 47.47 42.94, 69.95 17.08 M24.03 69.91 C40.38 51.1, 56.73 32.3, 69.95 17.08 M34.66 69.88 C46.4 56.37, 58.14 42.87, 70.08 29.12 M34.66 69.88 C42.85 60.45, 51.04 51.03, 70.08 29.12 M45.29 69.84 C53.74 60.12, 62.18 50.41, 69.56 41.92 M45.29 69.84 C52.8 61.2, 60.31 52.56, 69.56 41.92 M55.92 69.81 C61.17 63.77, 66.41 57.73, 69.69 53.96 M55.92 69.81 C60.44 64.61, 64.96 59.41, 69.69 53.96 M66.55 69.77 C67.48 68.7, 68.41 67.63, 69.83 66 M66.55 69.77 C67.78 68.35, 69.02 66.93, 69.83 66 M-0.31 68.95 C-0.31 68.95, -0.31 68.95, -0.31 68.95 M-0.31 68.95 C-0.31 68.95, -0.31 68.95, -0.31 68.95 M12.48 69.47 C8.7 66.18, 4.91 62.89, -0.35 58.32 M12.48 69.47 C8.84 66.31, 5.2 63.15, -0.35 58.32 M24.52 69.34 C17.5 63.24, 10.47 57.13, 0.37 48.35 M24.52 69.34 C16.31 62.2, 8.1 55.07, 0.37 48.35 M36.56 69.21 C23.47 57.83, 10.38 46.45, 0.34 37.72 M36.56 69.21 C26.11 60.12, 15.65 51.03, 0.34 37.72 M48.6 69.08 C37.32 59.27, 26.04 49.46, 0.3 27.09 M48.6 69.08 C36.83 58.84, 25.06 48.61, 0.3 27.09 M60.65 68.94 C42.16 52.87, 23.66 36.8, 0.27 16.46 M60.65 68.94 C43.89 54.38, 27.13 39.81, 0.27 16.46 M69.67 66.18 C47.78 47.16, 25.9 28.14, 0.23 5.83 M69.67 66.18 C48.51 47.79, 27.35 29.4, 0.23 5.83 M69.63 55.55 C50.22 38.68, 30.81 21.81, 4.73 -0.87 M69.63 55.55 C52.31 40.5, 35 25.44, 4.73 -0.87 M69.6 44.92 C55.8 32.93, 42 20.93, 17.52 -0.34 M69.6 44.92 C58.32 35.12, 47.04 25.31, 17.52 -0.34 M69.56 34.29 C55.39 21.97, 41.22 9.65, 29.56 -0.48 M69.56 34.29 C57.47 23.78, 45.37 13.26, 29.56 -0.48 M69.53 23.66 C60.93 16.19, 52.33 8.72, 41.61 -0.61 M69.53 23.66 C62.47 17.53, 55.42 11.4, 41.61 -0.61 M69.5 13.03 C65.82 9.84, 62.14 6.64, 53.65 -0.74 M69.5 13.03 C63.79 8.07, 58.08 3.11, 53.65 -0.74 M69.46 2.4 C68.47 1.54, 67.47 0.67, 65.69 -0.88 M69.46 2.4 C68.08 1.2, 66.7 0, 65.69 -0.88" stroke="#e6498088" stroke-width="1" fill="none"></path><path d="M0 0 C16.55 0, 33.1 0, 69.22 0 M0 0 C16.03 0, 32.05 0, 69.22 0 M69.22 0 C69.22 26.35, 69.22 52.71, 69.22 69.22 M69.22 0 C69.22 19.33, 69.22 38.65, 69.22 69.22 M69.22 69.22 C52.76 69.22, 36.3 69.22, 0 69.22 M69.22 69.22 C47.48 69.22, 25.74 69.22, 0 69.22 M0 69.22 C0 50.47, 0 31.71, 0 0 M0 69.22 C0 53.13, 0 37.03, 0 0" stroke="#000000" stroke-width="2" fill="none"></path></g><g stroke-linecap="round" transform="translate(150.70470531072726 46.9422438467721) rotate(0 4.3173945994509495 4.3173945994509495)"><path d="M8.63 4.32 C8.63 4.57, 8.61 4.82, 8.57 5.07 C8.53 5.31, 8.46 5.56, 8.37 5.79 C8.29 6.03, 8.18 6.26, 8.06 6.48 C7.93 6.69, 7.79 6.9, 7.62 7.09 C7.46 7.28, 7.28 7.46, 7.09 7.62 C6.9 7.79, 6.69 7.93, 6.48 8.06 C6.26 8.18, 6.03 8.29, 5.79 8.37 C5.56 8.46, 5.31 8.53, 5.07 8.57 C4.82 8.61, 4.57 8.63, 4.32 8.63 C4.07 8.63, 3.81 8.61, 3.57 8.57 C3.32 8.53, 3.08 8.46, 2.84 8.37 C2.61 8.29, 2.38 8.18, 2.16 8.06 C1.94 7.93, 1.73 7.79, 1.54 7.62 C1.35 7.46, 1.17 7.28, 1.01 7.09 C0.85 6.9, 0.7 6.69, 0.58 6.48 C0.45 6.26, 0.35 6.03, 0.26 5.79 C0.17 5.56, 0.11 5.31, 0.07 5.07 C0.02 4.82, 0 4.57, 0 4.32 C0 4.07, 0.02 3.81, 0.07 3.57 C0.11 3.32, 0.17 3.08, 0.26 2.84 C0.35 2.61, 0.45 2.38, 0.58 2.16 C0.7 1.94, 0.85 1.73, 1.01 1.54 C1.17 1.35, 1.35 1.17, 1.54 1.01 C1.73 0.85, 1.94 0.7, 2.16 0.58 C2.38 0.45, 2.61 0.35, 2.84 0.26 C3.08 0.17, 3.32 0.11, 3.57 0.07 C3.81 0.02, 4.07 0, 4.32 0 C4.57 0, 4.82 0.02, 5.07 0.07 C5.31 0.11, 5.56 0.17, 5.79 0.26 C6.03 0.35, 6.26 0.45, 6.48 0.58 C6.69 0.7, 6.9 0.85, 7.09 1.01 C7.28 1.17, 7.46 1.35, 7.62 1.54 C7.79 1.73, 7.93 1.94, 8.06 2.16 C8.18 2.38, 8.29 2.61, 8.37 2.84 C8.46 3.08, 8.53 3.32, 8.57 3.57 C8.61 3.81, 8.62 4.19, 8.63 4.32 C8.65 4.44, 8.65 4.19, 8.63 4.32" stroke="#000000" stroke-width="2" fill="none"></path></g><g stroke-linecap="round" transform="translate(194.3766241698944 46.86413313414181) rotate(0 4.3173945994509495 4.3173945994509495)"><path d="M8.63 4.32 C8.63 4.57, 8.61 4.82, 8.57 5.07 C8.53 5.31, 8.46 5.56, 8.37 5.79 C8.29 6.03, 8.18 6.26, 8.06 6.48 C7.93 6.69, 7.79 6.9, 7.62 7.09 C7.46 7.28, 7.28 7.46, 7.09 7.62 C6.9 7.79, 6.69 7.93, 6.48 8.06 C6.26 8.18, 6.03 8.29, 5.79 8.37 C5.56 8.46, 5.31 8.53, 5.07 8.57 C4.82 8.61, 4.57 8.63, 4.32 8.63 C4.07 8.63, 3.81 8.61, 3.57 8.57 C3.32 8.53, 3.08 8.46, 2.84 8.37 C2.61 8.29, 2.38 8.18, 2.16 8.06 C1.94 7.93, 1.73 7.79, 1.54 7.62 C1.35 7.46, 1.17 7.28, 1.01 7.09 C0.85 6.9, 0.7 6.69, 0.58 6.48 C0.45 6.26, 0.35 6.03, 0.26 5.79 C0.17 5.56, 0.11 5.31, 0.07 5.07 C0.02 4.82, 0 4.57, 0 4.32 C0 4.07, 0.02 3.81, 0.07 3.57 C0.11 3.32, 0.17 3.08, 0.26 2.84 C0.35 2.61, 0.45 2.38, 0.58 2.16 C0.7 1.94, 0.85 1.73, 1.01 1.54 C1.17 1.35, 1.35 1.17, 1.54 1.01 C1.73 0.85, 1.94 0.7, 2.16 0.58 C2.38 0.45, 2.61 0.35, 2.84 0.26 C3.08 0.17, 3.32 0.11, 3.57 0.07 C3.81 0.02, 4.07 0, 4.32 0 C4.57 0, 4.82 0.02, 5.07 0.07 C5.31 0.11, 5.56 0.17, 5.79 0.26 C6.03 0.35, 6.26 0.45, 6.48 0.58 C6.69 0.7, 6.9 0.85, 7.09 1.01 C7.28 1.17, 7.46 1.35, 7.62 1.54 C7.79 1.73, 7.93 1.94, 8.06 2.16 C8.18 2.38, 8.29 2.61, 8.37 2.84 C8.46 3.08, 8.53 3.32, 8.57 3.57 C8.61 3.81, 8.62 4.19, 8.63 4.32 C8.65 4.44, 8.65 4.19, 8.63 4.32" stroke="#000000" stroke-width="2" fill="none"></path></g><g stroke-linecap="round"><g transform="translate(168.76712258387533 43.02751748745288) rotate(0 0.7620358786481916 7.925132097879555)"><path d="M0 0 C0.27 0.62, 1.27 2.39, 1.63 3.74 C1.99 5.09, 2.21 6.67, 2.17 8.1 C2.13 9.53, 1.86 11.04, 1.39 12.33 C0.91 13.63, -0.31 15.26, -0.65 15.85 M0 0 C0.27 0.62, 1.27 2.39, 1.63 3.74 C1.99 5.09, 2.21 6.67, 2.17 8.1 C2.13 9.53, 1.86 11.04, 1.39 12.33 C0.91 13.63, -0.31 15.26, -0.65 15.85" stroke="#000000" stroke-width="2" fill="none"></path></g></g><mask></mask><g stroke-linecap="round"><g transform="translate(175.7463893393517 36.722975692825344) rotate(89.99999999999994 0.7620358786481916 7.925132097879555)"><path d="M0 0 C0.27 0.62, 1.27 2.39, 1.63 3.74 C1.99 5.09, 2.21 6.67, 2.17 8.1 C2.13 9.53, 1.86 11.04, 1.39 12.33 C0.91 13.63, -0.31 15.26, -0.65 15.85 M0 0 C0.27 0.62, 1.27 2.39, 1.63 3.74 C1.99 5.09, 2.21 6.67, 2.17 8.1 C2.13 9.53, 1.86 11.04, 1.39 12.33 C0.91 13.63, -0.31 15.26, -0.65 15.85" stroke="#000000" stroke-width="2" fill="none"></path></g></g><mask></mask><g stroke-linecap="round"><g transform="translate(182.05863728037116 43.65687625970179) rotate(180 0.7620358786481916 7.925132097879555)"><path d="M0 0 C0.27 0.62, 1.27 2.39, 1.63 3.74 C1.99 5.09, 2.21 6.67, 2.17 8.1 C2.13 9.53, 1.86 11.04, 1.39 12.33 C0.91 13.63, -0.31 15.26, -0.65 15.85 M0 0 C0.27 0.62, 1.27 2.39, 1.63 3.74 C1.99 5.09, 2.21 6.67, 2.17 8.1 C2.13 9.53, 1.86 11.04, 1.39 12.33 C0.91 13.63, -0.31 15.26, -0.65 15.85" stroke="#000000" stroke-width="2" fill="none"></path></g></g><mask></mask><g stroke-linecap="round"><g transform="translate(175.08904385212247 49.98360077297133) rotate(270 0.7620358786481916 7.925132097879555)"><path d="M0 0 C0.27 0.62, 1.27 2.39, 1.63 3.74 C1.99 5.09, 2.21 6.67, 2.17 8.1 C2.13 9.53, 1.86 11.04, 1.39 12.33 C0.91 13.63, -0.31 15.26, -0.65 15.85 M0 0 C0.27 0.62, 1.27 2.39, 1.63 3.74 C1.99 5.09, 2.21 6.67, 2.17 8.1 C2.13 9.53, 1.86 11.04, 1.39 12.33 C0.91 13.63, -0.31 15.26, -0.65 15.85" stroke="#000000" stroke-width="2" fill="none"></path></g></g><mask></mask><g stroke-linecap="round"><g transform="translate(161.4952934245165 51.27534306910218) rotate(0 3.10723236734691 0.05431565060919752)"><path d="M0 0 C1.43 -0.01, 2.86 -0.03, 6.19 -0.06 M0 0 C2.36 -0.02, 4.71 -0.04, 6.19 -0.06 M6.19 -0.06 C5.43 -0.79, 4.67 -1.53, 3.46 -2.69 M6.19 -0.06 C5.54 -0.68, 4.89 -1.31, 3.46 -2.69 M3.46 -2.69 C4.33 -1.86, 5.19 -1.03, 6.21 -0.05 M3.46 -2.69 C4.21 -1.98, 4.95 -1.26, 6.21 -0.05 M6.21 -0.05 C5.52 0.61, 4.83 1.28, 3.23 2.8 M6.21 -0.05 C5.23 0.89, 4.24 1.84, 3.23 2.8" stroke="#000000" stroke-width="2" fill="none"></path></g></g><mask></mask><g stroke-linecap="round"><g transform="translate(185.5276944744678 51.40603670434837) rotate(0 3.10723236734691 0.05431565060919752)"><path d="M0 0 C1.42 -0.01, 2.85 -0.03, 6.19 -0.06 M0 0 C1.26 -0.01, 2.51 -0.02, 6.19 -0.06 M6.19 -0.06 C5.37 -0.85, 4.54 -1.65, 3.46 -2.69 M6.19 -0.06 C5.55 -0.67, 4.92 -1.28, 3.46 -2.69 M3.46 -2.69 C4.46 -1.74, 5.46 -0.78, 6.21 -0.05 M3.46 -2.69 C4.19 -2, 4.92 -1.3, 6.21 -0.05 M6.21 -0.05 C5.61 0.53, 5 1.11, 3.23 2.8 M6.21 -0.05 C5.33 0.8, 4.44 1.65, 3.23 2.8" stroke="#000000" stroke-width="2" fill="none"></path></g></g><mask></mask><g stroke-linecap="round"><g transform="translate(154.98426915939513 46.98885321341231) rotate(0 21.99118387115965 -8.955157437153616)"><path d="M0 0 C0.45 -1.36, 1.26 -5.83, 2.72 -8.15 C4.19 -10.47, 6.58 -12.42, 8.8 -13.93 C11.02 -15.45, 13.63 -16.54, 16.06 -17.23 C18.48 -17.91, 20.74 -18.23, 23.34 -18.02 C25.94 -17.82, 29.25 -17.03, 31.65 -15.99 C34.04 -14.95, 35.99 -13.5, 37.74 -11.77 C39.48 -10.04, 41.05 -7.63, 42.09 -5.63 C43.13 -3.64, 43.67 -0.79, 43.98 0.17 M0 0 C0.45 -1.36, 1.26 -5.83, 2.72 -8.15 C4.19 -10.47, 6.58 -12.42, 8.8 -13.93 C11.02 -15.45, 13.63 -16.54, 16.06 -17.23 C18.48 -17.91, 20.74 -18.23, 23.34 -18.02 C25.94 -17.82, 29.25 -17.03, 31.65 -15.99 C34.04 -14.95, 35.99 -13.5, 37.74 -11.77 C39.48 -10.04, 41.05 -7.63, 42.09 -5.63 C43.13 -3.64, 43.67 -0.79, 43.98 0.17" stroke="#000000" stroke-width="2" fill="none"></path></g></g><mask></mask><g stroke-linecap="round"><g transform="translate(154.71446139808143 73.24829761174237) rotate(180 21.99118387115965 -8.955157437153616)"><path d="M0 0 C0.45 -1.36, 1.26 -5.83, 2.72 -8.15 C4.19 -10.47, 6.58 -12.42, 8.8 -13.93 C11.02 -15.45, 13.63 -16.54, 16.06 -17.23 C18.48 -17.91, 20.74 -18.23, 23.34 -18.02 C25.94 -17.82, 29.25 -17.03, 31.65 -15.99 C34.04 -14.95, 35.99 -13.5, 37.74 -11.77 C39.48 -10.04, 41.05 -7.63, 42.09 -5.63 C43.13 -3.64, 43.67 -0.79, 43.98 0.17 M0 0 C0.45 -1.36, 1.26 -5.83, 2.72 -8.15 C4.19 -10.47, 6.58 -12.42, 8.8 -13.93 C11.02 -15.45, 13.63 -16.54, 16.06 -17.23 C18.48 -17.91, 20.74 -18.23, 23.34 -18.02 C25.94 -17.82, 29.25 -17.03, 31.65 -15.99 C34.04 -14.95, 35.99 -13.5, 37.74 -11.77 C39.48 -10.04, 41.05 -7.63, 42.09 -5.63 C43.13 -3.64, 43.67 -0.79, 43.98 0.17" stroke="#000000" stroke-width="2" fill="none"></path></g></g><mask></mask><g transform="translate(155.87070530856045 89.62635995694507) rotate(0 20.425521850585938 13.5)"><text x="0" y="0" font-family="Virgil, Segoe UI Emoji" font-size="21.273401842037995px" fill="#000000" text-anchor="start" style="white-space: pre;" direction="ltr" dominant-baseline="text-before-edge">SQS</text></g><g stroke-linecap="round" transform="translate(405.6342662613663 10.00007740796093) rotate(0 32.350445556640466 32.350445556640494)"><path d="M3.72 -3.01 L64.82 1.17 L61.32 62.76 L2.01 62.76" stroke="none" stroke-width="0" fill="#e64980"></path><path d="M-3.22 1.87 C24.51 -3.61, 47.73 -4.74, 67.58 -1.1 M0.71 -0.13 C25.18 -0.44, 52.27 1.12, 66.14 1.78 M62.62 -2.19 C67.86 16.81, 60.32 33.86, 61.3 65.87 M64.82 1.68 C64.21 26.24, 64.87 50.73, 63.22 63.34 M68.52 67.76 C42.05 66.77, 16.75 63.54, 1.71 68.3 M62.76 65.56 C39.84 63.2, 12.92 65.74, -0.74 64.9 M2.01 63.62 C2.1 39.45, 2.75 16.89, 2.53 0.26 M-1.44 63.48 C1 47.29, 1.17 27.83, -1.58 1.89" stroke="#00000000" stroke-width="1" fill="none"></path></g><g stroke-linecap="round" transform="translate(403.1899749755862 13.533426599622203) rotate(0 32.350445556640466 32.350445556640494)"><path d="M0 0 C0 0, 0 0, 0 0 M0 0 C0 0, 0 0, 0 0 M-0.26 6.4 C1.31 4.59, 2.88 2.79, 4.99 0.36 M-0.26 6.4 C1.2 4.72, 2.66 3.04, 4.99 0.36 M0.13 12.04 C2.45 9.37, 4.77 6.71, 10.63 -0.03 M0.13 12.04 C2.77 9, 5.41 5.97, 10.63 -0.03 M-0.13 18.44 C4.73 12.85, 9.58 7.27, 15.62 0.33 M-0.13 18.44 C4.23 13.43, 8.59 8.41, 15.62 0.33 M0.27 24.08 C8.47 14.64, 16.68 5.2, 21.26 -0.07 M0.27 24.08 C8.65 14.43, 17.04 4.79, 21.26 -0.07 M0 30.48 C10.1 18.87, 20.19 7.25, 26.25 0.29 M0 30.48 C8.34 20.9, 16.67 11.31, 26.25 0.29 M-0.26 36.88 C12.26 22.48, 24.77 8.08, 31.89 -0.1 M-0.26 36.88 C10.49 24.52, 21.23 12.16, 31.89 -0.1 M0.14 42.52 C10.6 30.48, 21.07 18.44, 36.88 0.26 M0.14 42.52 C7.93 33.56, 15.72 24.6, 36.88 0.26 M-0.12 48.92 C9.62 37.71, 19.37 26.5, 42.52 -0.14 M-0.12 48.92 C13.73 32.98, 27.58 17.05, 42.52 -0.14 M0.27 54.56 C12.17 40.88, 24.06 27.19, 47.51 0.22 M0.27 54.56 C14.99 37.63, 29.72 20.69, 47.51 0.22 M0.01 60.96 C18.98 39.13, 37.96 17.3, 53.15 -0.17 M0.01 60.96 C12.21 46.93, 24.41 32.89, 53.15 -0.17 M1.72 65.09 C19.46 44.68, 37.21 24.27, 58.14 0.19 M1.72 65.09 C13.38 51.68, 25.04 38.26, 58.14 0.19 M7.36 64.7 C27.63 41.38, 47.89 18.07, 63.78 -0.21 M7.36 64.7 C29.68 39.02, 52.01 13.34, 63.78 -0.21 M12.35 65.06 C32.7 41.65, 53.05 18.24, 64.83 4.68 M12.35 65.06 C24.23 51.39, 36.11 37.72, 64.83 4.68 M17.33 65.42 C29.39 51.55, 41.45 37.68, 64.57 11.08 M17.33 65.42 C34.32 45.88, 51.3 26.35, 64.57 11.08 M22.98 65.02 C38.61 47.04, 54.24 29.06, 64.96 16.72 M22.98 65.02 C37.22 48.64, 51.46 32.25, 64.96 16.72 M27.96 65.38 C35.36 56.87, 42.77 48.36, 64.7 23.12 M27.96 65.38 C40.7 50.74, 53.43 36.09, 64.7 23.12 M33.61 64.99 C41.63 55.76, 49.65 46.53, 65.1 28.76 M33.61 64.99 C41.56 55.84, 49.51 46.69, 65.1 28.76 M38.59 65.35 C48.83 53.58, 59.06 41.81, 64.84 35.16 M38.59 65.35 C48.33 54.14, 58.08 42.94, 64.84 35.16 M44.24 64.95 C48.46 60.09, 52.69 55.23, 64.57 41.56 M44.24 64.95 C50.6 57.64, 56.96 50.32, 64.57 41.56 M49.22 65.31 C54.72 59, 60.21 52.68, 64.97 47.2 M49.22 65.31 C54.53 59.21, 59.84 53.11, 64.97 47.2 M54.87 64.92 C57.72 61.64, 60.58 58.35, 64.71 53.6 M54.87 64.92 C56.89 62.59, 58.92 60.26, 64.71 53.6 M59.85 65.28 C61.12 63.82, 62.4 62.36, 65.1 59.24 M59.85 65.28 C61.62 63.25, 63.39 61.22, 65.1 59.24" stroke="#e64980" stroke-width="0.5" fill="none"></path><path d="M0 0 C25.59 0, 51.18 0, 64.7 0 M0 0 C24.06 0, 48.12 0, 64.7 0 M64.7 0 C64.7 18.27, 64.7 36.54, 64.7 64.7 M64.7 0 C64.7 16.32, 64.7 32.64, 64.7 64.7 M64.7 64.7 C45.56 64.7, 26.42 64.7, 0 64.7 M64.7 64.7 C39.85 64.7, 14.99 64.7, 0 64.7 M0 64.7 C0 39.77, 0 14.84, 0 0 M0 64.7 C0 42.2, 0 19.7, 0 0" stroke="#000000" stroke-width="1" fill="none"></path></g><g stroke-linecap="round" transform="translate(432.12576467844474 21.40997093278895) rotate(0 2.87835857402456 2.8783585740245883)"><path d="M5.76 2.88 C5.76 3.04, 5.74 3.21, 5.71 3.38 C5.68 3.54, 5.64 3.71, 5.58 3.86 C5.53 4.02, 5.45 4.17, 5.37 4.32 C5.29 4.46, 5.19 4.6, 5.08 4.73 C4.98 4.86, 4.86 4.98, 4.73 5.08 C4.6 5.19, 4.46 5.29, 4.32 5.37 C4.17 5.45, 4.02 5.53, 3.86 5.58 C3.71 5.64, 3.54 5.68, 3.38 5.71 C3.21 5.74, 3.04 5.76, 2.88 5.76 C2.71 5.76, 2.54 5.74, 2.38 5.71 C2.21 5.68, 2.05 5.64, 1.89 5.58 C1.74 5.53, 1.58 5.45, 1.44 5.37 C1.29 5.29, 1.16 5.19, 1.03 5.08 C0.9 4.98, 0.78 4.86, 0.67 4.73 C0.57 4.6, 0.47 4.46, 0.39 4.32 C0.3 4.17, 0.23 4.02, 0.17 3.86 C0.12 3.71, 0.07 3.54, 0.04 3.38 C0.01 3.21, 0 3.04, 0 2.88 C0 2.71, 0.01 2.54, 0.04 2.38 C0.07 2.21, 0.12 2.05, 0.17 1.89 C0.23 1.74, 0.3 1.58, 0.39 1.44 C0.47 1.29, 0.57 1.16, 0.67 1.03 C0.78 0.9, 0.9 0.78, 1.03 0.67 C1.16 0.57, 1.29 0.47, 1.44 0.39 C1.58 0.3, 1.74 0.23, 1.89 0.17 C2.05 0.12, 2.21 0.07, 2.38 0.04 C2.54 0.01, 2.71 0, 2.88 0 C3.04 0, 3.21 0.01, 3.38 0.04 C3.54 0.07, 3.71 0.12, 3.86 0.17 C4.02 0.23, 4.17 0.3, 4.32 0.39 C4.46 0.47, 4.6 0.57, 4.73 0.67 C4.86 0.78, 4.98 0.9, 5.08 1.03 C5.19 1.16, 5.29 1.29, 5.37 1.44 C5.45 1.58, 5.53 1.74, 5.58 1.89 C5.64 2.05, 5.68 2.21, 5.71 2.38 C5.74 2.54, 5.75 2.8, 5.76 2.88 C5.76 2.96, 5.76 2.8, 5.76 2.88" stroke="#ffffff" stroke-width="2" fill="none"></path></g><g stroke-linecap="round" transform="translate(432.1856264901626 64.60105623168704) rotate(0 2.87835857402456 2.8783585740245883)"><path d="M5.76 2.88 C5.76 3.04, 5.74 3.21, 5.71 3.38 C5.68 3.54, 5.64 3.71, 5.58 3.86 C5.53 4.02, 5.45 4.17, 5.37 4.32 C5.29 4.46, 5.19 4.6, 5.08 4.73 C4.98 4.86, 4.86 4.98, 4.73 5.08 C4.6 5.19, 4.46 5.29, 4.32 5.37 C4.17 5.45, 4.02 5.53, 3.86 5.58 C3.71 5.64, 3.54 5.68, 3.38 5.71 C3.21 5.74, 3.04 5.76, 2.88 5.76 C2.71 5.76, 2.54 5.74, 2.38 5.71 C2.21 5.68, 2.05 5.64, 1.89 5.58 C1.74 5.53, 1.58 5.45, 1.44 5.37 C1.29 5.29, 1.16 5.19, 1.03 5.08 C0.9 4.98, 0.78 4.86, 0.67 4.73 C0.57 4.6, 0.47 4.46, 0.39 4.32 C0.3 4.17, 0.23 4.02, 0.17 3.86 C0.12 3.71, 0.07 3.54, 0.04 3.38 C0.01 3.21, 0 3.04, 0 2.88 C0 2.71, 0.01 2.54, 0.04 2.38 C0.07 2.21, 0.12 2.05, 0.17 1.89 C0.23 1.74, 0.3 1.58, 0.39 1.44 C0.47 1.29, 0.57 1.16, 0.67 1.03 C0.78 0.9, 0.9 0.78, 1.03 0.67 C1.16 0.57, 1.29 0.47, 1.44 0.39 C1.58 0.3, 1.74 0.23, 1.89 0.17 C2.05 0.12, 2.21 0.07, 2.38 0.04 C2.54 0.01, 2.71 0, 2.88 0 C3.04 0, 3.21 0.01, 3.38 0.04 C3.54 0.07, 3.71 0.12, 3.86 0.17 C4.02 0.23, 4.17 0.3, 4.32 0.39 C4.46 0.47, 4.6 0.57, 4.73 0.67 C4.86 0.78, 4.98 0.9, 5.08 1.03 C5.19 1.16, 5.29 1.29, 5.37 1.44 C5.45 1.58, 5.53 1.74, 5.58 1.89 C5.64 2.05, 5.68 2.21, 5.71 2.38 C5.74 2.54, 5.75 2.8, 5.76 2.88 C5.76 2.96, 5.76 2.8, 5.76 2.88" stroke="#ffffff" stroke-width="2" fill="none"></path></g><g stroke-linecap="round" transform="translate(409.92894784892997 36.74027691161007) rotate(0 9.483492112783438 3.121513875413058)"><path d="M0 0 C4.03 0, 8.06 0, 18.97 0 M0 0 C5.57 0, 11.14 0, 18.97 0 M18.97 0 C18.97 1.64, 18.97 3.28, 18.97 6.24 M18.97 0 C18.97 1.29, 18.97 2.57, 18.97 6.24 M18.97 6.24 C13.16 6.24, 7.36 6.24, 0 6.24 M18.97 6.24 C14.57 6.24, 10.17 6.24, 0 6.24 M0 6.24 C0 3.94, 0 1.64, 0 0 M0 6.24 C0 4.56, 0 2.87, 0 0" stroke="#ffffff" stroke-width="2" fill="none"></path></g><g stroke-linecap="round" transform="translate(410.0117410505786 48.94995099155756) rotate(0 9.483492112783438 3.121513875413058)"><path d="M0 0 C5.17 0, 10.34 0, 18.97 0 M0 0 C4.47 0, 8.94 0, 18.97 0 M18.97 0 C18.97 2.18, 18.97 4.36, 18.97 6.24 M18.97 0 C18.97 1.34, 18.97 2.68, 18.97 6.24 M18.97 6.24 C13.6 6.24, 8.23 6.24, 0 6.24 M18.97 6.24 C14.28 6.24, 9.6 6.24, 0 6.24 M0 6.24 C0 4.45, 0 2.65, 0 0 M0 6.24 C0 4.1, 0 1.96, 0 0" stroke="#ffffff" stroke-width="2" fill="none"></path></g><g stroke-linecap="round" transform="translate(442.1849089899579 41.86524740261427) rotate(0 9.483492112783438 4.237411230997424)"><path d="M0 0 C6.31 0, 12.62 0, 18.97 0 M0 0 C5.95 0, 11.91 0, 18.97 0 M18.97 0 C18.97 2.08, 18.97 4.16, 18.97 8.47 M18.97 0 C18.97 3.34, 18.97 6.68, 18.97 8.47 M18.97 8.47 C12.97 8.47, 6.98 8.47, 0 8.47 M18.97 8.47 C11.46 8.47, 3.96 8.47, 0 8.47 M0 8.47 C0 5.17, 0 1.86, 0 0 M0 8.47 C0 6.4, 0 4.33, 0 0" stroke="#ffffff" stroke-width="2" fill="none"></path></g><g stroke-linecap="round"><g transform="translate(419.68110127390673 43.50974707415833) rotate(0 0 2.5335414027470904)"><path d="M0 0 C0 0.84, 0 4.22, 0 5.07 M0 0 C0 0.84, 0 4.22, 0 5.07" stroke="#ffffff" stroke-width="2" fill="none"></path></g></g><mask></mask><g stroke-linecap="round"><g transform="translate(419.8129548895263 32.507040995067996) rotate(0 16.397144796990972 0)"><path d="M0 0 C5.47 0, 27.33 0, 32.79 0 M0 0 C5.47 0, 27.33 0, 32.79 0" stroke="#ffffff" stroke-width="2" fill="none"></path></g></g><mask></mask><g stroke-linecap="round"><g transform="translate(419.23073027670716 31.542633430574938) rotate(0 0 2.5335414027470904)"><path d="M0 0 C0 0.84, 0 4.22, 0 5.07 M0 0 C0 0.84, 0 4.22, 0 5.07" stroke="#ffffff" stroke-width="2" fill="none"></path></g></g><mask></mask><g stroke-linecap="round"><g transform="translate(451.71800496437436 32.30236426575277) rotate(0 0 2.9800410859174633)"><path d="M0 0 C0 0.99, 0 4.97, 0 5.96 M0 0 C0 0.99, 0 4.97, 0 5.96" stroke="#ffffff" stroke-width="2" fill="none"></path></g></g><mask></mask><g stroke-linecap="round"><g transform="translate(435.0225689472777 27.666840085595027) rotate(0 0 2.2760061307270973)"><path d="M0 0 C0 0.76, 0 3.79, 0 4.55 M0 0 C0 0.76, 0 3.79, 0 4.55" stroke="#ffffff" stroke-width="2" fill="none"></path></g></g><mask></mask><g stroke-linecap="round"><g transform="translate(419.83342725382136 59.895904695365175) rotate(0 16.397144796990972 0)"><path d="M0 0 C5.47 0, 27.33 0, 32.79 0 M0 0 C5.47 0, 27.33 0, 32.79 0" stroke="#ffffff" stroke-width="2" fill="none"></path></g></g><mask></mask><g stroke-linecap="round"><g transform="translate(435.0430413115764 59.07662805879056) rotate(0 0 2.4095336252138395)"><path d="M0 0 C0 0.8, 0 4.02, 0 4.82 M0 0 C0 0.8, 0 4.02, 0 4.82" stroke="#ffffff" stroke-width="2" fill="none"></path></g></g><mask></mask><g stroke-linecap="round"><g transform="translate(419.7792971636659 55.72604348430616) rotate(0 0 2.5335414027470904)"><path d="M0 0 C0 0.84, 0 4.22, 0 5.07 M0 0 C0 0.84, 0 4.22, 0 5.07" stroke="#ffffff" stroke-width="2" fill="none"></path></g></g><mask></mask><g stroke-linecap="round"><g transform="translate(451.67595232312806 54.59544526875618) rotate(0 0 2.9800410859174633)"><path d="M0 0 C0 0.99, 0 4.97, 0 5.96 M0 0 C0 0.99, 0 4.97, 0 5.96" stroke="#ffffff" stroke-width="2" fill="none"></path></g></g><mask></mask><g transform="translate(378.16429901123047 82.20037954848647) rotate(0 57.376121520996094 20)"><text x="57.376121520996094" y="0" font-family="Virgil, Segoe UI Emoji" font-size="16px" fill="#000000" text-anchor="middle" style="white-space: pre;" direction="ltr" dominant-baseline="text-before-edge">AWS</text><text x="57.376121520996094" y="20" font-family="Virgil, Segoe UI Emoji" font-size="16px" fill="#000000" text-anchor="middle" style="white-space: pre;" direction="ltr" dominant-baseline="text-before-edge">Step Functions</text></g><g stroke-linecap="round" transform="translate(540.7493461402203 10) rotate(0 32.54042053222645 32.540420532226506)"><path d="M-3.02 -2.85 L67.19 -1.73 L62.93 64.2 L-2.84 65.01" stroke="none" stroke-width="0" fill="#4c6ef5"></path><path d="M3.81 2.61 C16.81 3.45, 39.34 -2.67, 62.65 -2.44 M1.91 -0.79 C14.15 -0.01, 27.89 -1.1, 65.51 -1.14 M62.23 -0.45 C64.91 24.08, 67.31 42.46, 68.54 67.29 M65.78 -1.8 C63.99 20.73, 65.98 42.08, 63.6 65.13 M65.37 69.01 C51.28 65.93, 36.04 64.26, -2.23 63.91 M66.87 63.59 C41.29 63.92, 19.31 62.33, -1.17 65.86 M-0.71 65.78 C1.39 42.7, 1.51 15.02, 3.27 -0.74 M-0.51 63.78 C0.5 51.18, -1.91 37.65, -0.57 1.58" stroke="#00000000" stroke-width="1" fill="none"></path></g><g stroke-linecap="round" transform="translate(536.75390625 12.843630174220834) rotate(0 32.54042053222656 32.540420532226506)"><path d="M0 0 C0 0, 0 0, 0 0 M0 0 C0 0, 0 0, 0 0 M-0.26 6.4 C1.71 4.13, 3.68 1.86, 4.99 0.36 M-0.26 6.4 C1.19 4.72, 2.65 3.05, 4.99 0.36 M0.13 12.04 C2.98 8.76, 5.83 5.48, 10.63 -0.03 M0.13 12.04 C3.05 8.68, 5.97 5.33, 10.63 -0.03 M-0.13 18.44 C5.25 12.25, 10.64 6.06, 15.62 0.33 M-0.13 18.44 C5.16 12.35, 10.46 6.26, 15.62 0.33 M0.27 24.08 C4.87 18.78, 9.48 13.48, 21.26 -0.07 M0.27 24.08 C6.92 16.42, 13.58 8.76, 21.26 -0.07 M0 30.48 C5.3 24.38, 10.6 18.29, 26.25 0.29 M0 30.48 C8.17 21.09, 16.33 11.7, 26.25 0.29 M-0.26 36.88 C7.72 27.7, 15.71 18.51, 31.89 -0.1 M-0.26 36.88 C8.92 26.32, 18.1 15.76, 31.89 -0.1 M0.14 42.52 C10.29 30.85, 20.43 19.17, 36.88 0.26 M0.14 42.52 C8.9 32.44, 17.66 22.36, 36.88 0.26 M-0.12 48.92 C15.17 31.32, 30.47 13.73, 42.52 -0.14 M-0.12 48.92 C10.61 36.57, 21.35 24.22, 42.52 -0.14 M0.27 54.56 C10.71 42.55, 21.14 30.55, 47.51 0.22 M0.27 54.56 C11.79 41.32, 23.3 28.07, 47.51 0.22 M0.01 60.96 C12.62 46.45, 25.24 31.94, 53.15 -0.17 M0.01 60.96 C11.87 47.32, 23.72 33.68, 53.15 -0.17 M1.72 65.09 C20.24 43.78, 38.76 22.47, 58.14 0.19 M1.72 65.09 C15.33 49.43, 28.95 33.76, 58.14 0.19 M6.7 65.45 C27.08 42.01, 47.46 18.57, 63.78 -0.21 M6.7 65.45 C20.76 49.29, 34.81 33.12, 63.78 -0.21 M12.35 65.06 C24.38 51.22, 36.41 37.38, 65.49 3.93 M12.35 65.06 C24.82 50.71, 37.3 36.35, 65.49 3.93 M17.33 65.42 C30.74 50, 44.14 34.58, 65.88 9.57 M17.33 65.42 C32.22 48.3, 47.1 31.17, 65.88 9.57 M22.98 65.02 C39.15 46.42, 55.32 27.82, 65.62 15.97 M22.98 65.02 C32.22 54.39, 41.46 43.76, 65.62 15.97 M27.96 65.38 C40.87 50.54, 53.78 35.69, 66.02 21.61 M27.96 65.38 C36.67 55.36, 45.38 45.35, 66.02 21.61 M33.61 64.99 C46.04 50.69, 58.47 36.38, 65.75 28.01 M33.61 64.99 C42.25 55.05, 50.89 45.11, 65.75 28.01 M38.59 65.35 C48.73 53.69, 58.86 42.03, 65.49 34.41 M38.59 65.35 C48.73 53.69, 58.86 42.03, 65.49 34.41 M44.24 64.95 C50.41 57.86, 56.58 50.76, 65.89 40.05 M44.24 64.95 C49.9 58.44, 55.57 51.92, 65.89 40.05 M49.22 65.31 C52.59 61.44, 55.95 57.57, 65.63 46.45 M49.22 65.31 C55.01 58.65, 60.81 51.99, 65.63 46.45 M54.87 64.92 C57.61 61.77, 60.35 58.62, 66.02 52.09 M54.87 64.92 C58.83 60.36, 62.79 55.81, 66.02 52.09 M59.85 65.28 C61.78 63.06, 63.71 60.84, 65.76 58.49 M59.85 65.28 C61.62 63.25, 63.39 61.21, 65.76 58.49" stroke="#4c6ef5" stroke-width="0.5" fill="none"></path><path d="M0 0 C19.14 0, 38.28 0, 65.08 0 M0 0 C15.57 0, 31.14 0, 65.08 0 M65.08 0 C65.08 21.07, 65.08 42.14, 65.08 65.08 M65.08 0 C65.08 13.51, 65.08 27.02, 65.08 65.08 M65.08 65.08 C49.16 65.08, 33.23 65.08, 0 65.08 M65.08 65.08 C51.42 65.08, 37.77 65.08, 0 65.08 M0 65.08 C0 50.82, 0 36.56, 0 0 M0 65.08 C0 46.4, 0 27.71, 0 0" stroke="#000000" stroke-width="1" fill="none"></path></g><g stroke-linecap="round"><g transform="translate(572.8847069457242 28.123860658820604) rotate(0 6.8426058235760365 14.751091176351991)"><path d="M0 0 C4.12 -0.03, 8.25 -0.06, 11.29 -0.08 M0 0 C2.37 -0.02, 4.75 -0.03, 11.29 -0.08 M11.29 -0.08 C10.52 3.61, 9.74 7.29, 8.92 11.18 M11.29 -0.08 C10.75 2.5, 10.21 5.07, 8.92 11.18 M8.92 11.18 C11.8 11.16, 14.69 11.15, 17.04 11.13 M8.92 11.18 C11.42 11.17, 13.92 11.15, 17.04 11.13 M17.04 11.13 C12.96 15.81, 8.88 20.49, 0.95 29.58 M17.04 11.13 C13.11 15.64, 9.18 20.14, 0.95 29.58 M0.95 29.58 C1.79 25.63, 2.62 21.68, 4.5 12.79 M0.95 29.58 C1.72 25.95, 2.49 22.32, 4.5 12.79 M4.5 12.79 C2 12.83, -0.51 12.87, -3.35 12.91 M4.5 12.79 C2.66 12.82, 0.81 12.85, -3.35 12.91 M-3.35 12.91 C-2.6 10.01, -1.85 7.11, 0 0 M-3.35 12.91 C-2.35 9.06, -1.35 5.21, 0 0" stroke="#ffffff" stroke-width="2" fill="none"></path></g></g><mask></mask><g stroke-linecap="round"><g transform="translate(579.1007829510099 25.093149456128685) rotate(0 -15.08316273700757 4.854738639168517)"><path d="M0 0 C-0.78 -0.22, -2.83 -0.97, -4.71 -1.32 C-6.58 -1.66, -8.8 -2.04, -11.24 -2.07 C-13.67 -2.09, -16.88 -1.86, -19.32 -1.45 C-21.77 -1.04, -24.41 -0.17, -25.92 0.38 C-27.44 0.94, -27.77 1.38, -28.41 1.89 C-29.04 2.4, -29.46 2.81, -29.75 3.42 C-30.03 4.04, -30.27 4.9, -30.12 5.58 C-29.98 6.26, -29.58 6.84, -28.9 7.5 C-28.21 8.16, -27.18 8.97, -26.04 9.52 C-24.9 10.07, -23.41 10.48, -22.04 10.81 C-20.68 11.14, -19.34 11.33, -17.86 11.49 C-16.38 11.65, -14.56 11.77, -13.14 11.78 C-11.73 11.78, -9.99 11.58, -9.36 11.54 M0 0 C-0.78 -0.22, -2.83 -0.97, -4.71 -1.32 C-6.58 -1.66, -8.8 -2.04, -11.24 -2.07 C-13.67 -2.09, -16.88 -1.86, -19.32 -1.45 C-21.77 -1.04, -24.41 -0.17, -25.92 0.38 C-27.44 0.94, -27.77 1.38, -28.41 1.89 C-29.04 2.4, -29.46 2.81, -29.75 3.42 C-30.03 4.04, -30.27 4.9, -30.12 5.58 C-29.98 6.26, -29.58 6.84, -28.9 7.5 C-28.21 8.16, -27.18 8.97, -26.04 9.52 C-24.9 10.07, -23.41 10.48, -22.04 10.81 C-20.68 11.14, -19.34 11.33, -17.86 11.49 C-16.38 11.65, -14.56 11.77, -13.14 11.78 C-11.73 11.78, -9.99 11.58, -9.36 11.54" stroke="#ffffff" stroke-width="2" fill="none"></path></g></g><mask></mask><g stroke-linecap="round"><g transform="translate(549.1479592006344 29.71411713087673) rotate(0 -0.0759000701664263 15.725015039237292)"><path d="M0 0 C-0.03 5.24, -0.13 26.21, -0.15 31.45 M0 0 C-0.03 5.24, -0.13 26.21, -0.15 31.45" stroke="#ffffff" stroke-width="2" fill="none"></path></g></g><mask></mask><g stroke-linecap="round"><g transform="translate(548.824291867812 60.81889814549413) rotate(0 18.165458324679093 3.461030698902846)"><path d="M0 0 C0.07 0.26, 0.1 1.02, 0.43 1.53 C0.75 2.05, 1.23 2.57, 1.94 3.1 C2.64 3.63, 3.55 4.23, 4.65 4.71 C5.75 5.19, 7.2 5.63, 8.53 5.97 C9.85 6.3, 11.08 6.55, 12.6 6.71 C14.11 6.87, 15.85 6.92, 17.6 6.92 C19.35 6.93, 21.38 6.91, 23.08 6.74 C24.78 6.58, 26.27 6.33, 27.78 5.94 C29.3 5.55, 30.95 4.97, 32.16 4.41 C33.36 3.86, 34.34 3.31, 35.04 2.6 C35.73 1.9, 36.12 0.6, 36.33 0.2 M0 0 C0.07 0.26, 0.1 1.02, 0.43 1.53 C0.75 2.05, 1.23 2.57, 1.94 3.1 C2.64 3.63, 3.55 4.23, 4.65 4.71 C5.75 5.19, 7.2 5.63, 8.53 5.97 C9.85 6.3, 11.08 6.55, 12.6 6.71 C14.11 6.87, 15.85 6.92, 17.6 6.92 C19.35 6.93, 21.38 6.91, 23.08 6.74 C24.78 6.58, 26.27 6.33, 27.78 5.94 C29.3 5.55, 30.95 4.97, 32.16 4.41 C33.36 3.86, 34.34 3.31, 35.04 2.6 C35.73 1.9, 36.12 0.6, 36.33 0.2" stroke="#ffffff" stroke-width="2" fill="none"></path></g></g><mask></mask><g stroke-linecap="round"><g transform="translate(585.1906715472528 61.120074939948836) rotate(0 -0.04008524370055966 -7.298939482208169)"><path d="M0 0 C-0.01 -2.43, -0.07 -12.16, -0.08 -14.6 M0 0 C-0.01 -2.43, -0.07 -12.16, -0.08 -14.6" stroke="#ffffff" stroke-width="2" fill="none"></path></g></g><mask></mask><g stroke-linecap="round"><g transform="translate(548.9538946334344 38.11827870472757) rotate(0 10.664985931171941 3.235652743942893)"><path d="M0 0 C0.1 0.28, 0.16 1.1, 0.58 1.67 C1 2.24, 1.67 2.83, 2.53 3.4 C3.38 3.98, 4.63 4.74, 5.7 5.14 C6.78 5.53, 7.74 5.56, 8.96 5.77 C10.17 5.99, 11.56 6.33, 13 6.44 C14.43 6.54, 16.2 6.39, 17.59 6.38 C18.98 6.36, 20.71 6.34, 21.33 6.34 M0 0 C0.1 0.28, 0.16 1.1, 0.58 1.67 C1 2.24, 1.67 2.83, 2.53 3.4 C3.38 3.98, 4.63 4.74, 5.7 5.14 C6.78 5.53, 7.74 5.56, 8.96 5.77 C10.17 5.99, 11.56 6.33, 13 6.44 C14.43 6.54, 16.2 6.39, 17.59 6.38 C18.98 6.36, 20.71 6.34, 21.33 6.34" stroke="#ffffff" stroke-width="2" fill="none"></path></g></g><mask></mask><g stroke-linecap="round"><g transform="translate(548.839614554824 41.4807485571057) rotate(0 12.014454878583138 3.4215953763832374)"><path d="M0 0 C0.08 0.29, 0.07 1.16, 0.46 1.74 C0.85 2.32, 1.41 2.9, 2.32 3.48 C3.23 4.06, 4.57 4.75, 5.91 5.22 C7.26 5.69, 8.8 6.03, 10.41 6.3 C12.02 6.57, 13.9 6.77, 15.59 6.83 C17.27 6.89, 19.1 6.77, 20.51 6.66 C21.92 6.54, 23.44 6.24, 24.03 6.15 M0 0 C0.08 0.29, 0.07 1.16, 0.46 1.74 C0.85 2.32, 1.41 2.9, 2.32 3.48 C3.23 4.06, 4.57 4.75, 5.91 5.22 C7.26 5.69, 8.8 6.03, 10.41 6.3 C12.02 6.57, 13.9 6.77, 15.59 6.83 C17.27 6.89, 19.1 6.77, 20.51 6.66 C21.92 6.54, 23.44 6.24, 24.03 6.15" stroke="#ffffff" stroke-width="2" fill="none"></path></g></g><mask></mask><g stroke-linecap="round"><g transform="translate(548.8911429531745 49.73782992546148) rotate(0 11.923246779587657 3.2599154132182946)"><path d="M0 0 C0.09 0.28, 0.18 1.14, 0.54 1.69 C0.89 2.24, 1.23 2.73, 2.12 3.32 C3.02 3.91, 4.44 4.78, 5.89 5.25 C7.33 5.72, 9.24 5.94, 10.8 6.15 C12.35 6.36, 13.59 6.46, 15.23 6.5 C16.86 6.55, 19.16 6.51, 20.6 6.41 C22.03 6.31, 23.3 6, 23.85 5.92 M0 0 C0.09 0.28, 0.18 1.14, 0.54 1.69 C0.89 2.24, 1.23 2.73, 2.12 3.32 C3.02 3.91, 4.44 4.78, 5.89 5.25 C7.33 5.72, 9.24 5.94, 10.8 6.15 C12.35 6.36, 13.59 6.46, 15.23 6.5 C16.86 6.55, 19.16 6.51, 20.6 6.41 C22.03 6.31, 23.3 6, 23.85 5.92" stroke="#ffffff" stroke-width="2" fill="none"></path></g></g><mask></mask><g stroke-linecap="round"><g transform="translate(548.6648645864 53.73762779073809) rotate(0 18.330814841005008 2.749513812745988)"><path d="M0 0 C0.18 0.29, 0.47 1.15, 1.1 1.73 C1.73 2.32, 2.79 3.05, 3.77 3.53 C4.74 4.01, 5.39 4.2, 6.96 4.62 C8.54 5.04, 11.18 5.8, 13.23 6.05 C15.27 6.31, 17.35 6.21, 19.24 6.14 C21.13 6.08, 22.91 5.88, 24.57 5.65 C26.23 5.42, 27.69 5.18, 29.18 4.75 C30.68 4.33, 32.43 3.67, 33.53 3.08 C34.63 2.49, 35.25 1.85, 35.77 1.21 C36.3 0.58, 36.51 -0.4, 36.66 -0.72 M0 0 C0.18 0.29, 0.47 1.15, 1.1 1.73 C1.73 2.32, 2.79 3.05, 3.77 3.53 C4.74 4.01, 5.39 4.2, 6.96 4.62 C8.54 5.04, 11.18 5.8, 13.23 6.05 C15.27 6.31, 17.35 6.21, 19.24 6.14 C21.13 6.08, 22.91 5.88, 24.57 5.65 C26.23 5.42, 27.69 5.18, 29.18 4.75 C30.68 4.33, 32.43 3.67, 33.53 3.08 C34.63 2.49, 35.25 1.85, 35.77 1.21 C36.3 0.58, 36.51 -0.4, 36.66 -0.72" stroke="#ffffff" stroke-width="2" fill="none"></path></g></g><mask></mask><g stroke-linecap="round"><g transform="translate(579.533101620272 53.93547416908086) rotate(0 2.7091546481840396 -1.7684364552388558)"><path d="M0 0 C0.65 -0.36, 3.03 -1.57, 3.93 -2.16 C4.83 -2.75, 5.17 -3.31, 5.42 -3.54 M0 0 C0.65 -0.36, 3.03 -1.57, 3.93 -2.16 C4.83 -2.75, 5.17 -3.31, 5.42 -3.54" stroke="#ffffff" stroke-width="2" fill="none"></path></g></g><mask></mask><g stroke-linecap="round"><g transform="translate(552.1730115748333 36.349211947631375) rotate(0 2.097595720521497 2.2806300052176027)"><path d="M0 0 C1.21 0.48, 2.42 0.95, 4.34 1.72 M0 0 C1.68 0.66, 3.36 1.33, 4.34 1.72 M4.34 1.72 C4.31 2.55, 4.28 3.38, 4.23 4.56 M4.34 1.72 C4.3 2.84, 4.25 3.96, 4.23 4.56 M4.23 4.56 C2.94 4.06, 1.65 3.56, -0.15 2.86 M4.23 4.56 C3.24 4.18, 2.25 3.79, -0.15 2.86 M-0.15 2.86 C-0.09 1.74, -0.03 0.63, 0 0 M-0.15 2.86 C-0.1 1.97, -0.06 1.08, 0 0" stroke="#ffffff" stroke-width="2" fill="none"></path></g></g><mask></mask><g stroke-linecap="round"><g transform="translate(552.2291133261958 48.16127152516492) rotate(0 2.097595720521497 2.2806300052176027)"><path d="M0 0 C1.25 0.5, 2.51 0.99, 4.34 1.72 M0 0 C1.37 0.54, 2.75 1.08, 4.34 1.72 M4.34 1.72 C4.3 2.83, 4.25 3.94, 4.23 4.56 M4.34 1.72 C4.31 2.59, 4.27 3.46, 4.23 4.56 M4.23 4.56 C3.04 4.1, 1.86 3.64, -0.15 2.86 M4.23 4.56 C2.96 4.07, 1.7 3.58, -0.15 2.86 M-0.15 2.86 C-0.11 2.03, -0.06 1.2, 0 0 M-0.15 2.86 C-0.09 1.77, -0.04 0.68, 0 0" stroke="#ffffff" stroke-width="2" fill="none"></path></g></g><mask></mask><g stroke-linecap="round"><g transform="translate(552.3835470533584 59.523942979649064) rotate(0 2.097595720521497 2.2806300052176027)"><path d="M0 0 C1.49 0.59, 2.99 1.18, 4.34 1.72 M0 0 C1.73 0.68, 3.46 1.37, 4.34 1.72 M4.34 1.72 C4.32 2.36, 4.29 3, 4.23 4.56 M4.34 1.72 C4.31 2.6, 4.27 3.49, 4.23 4.56 M4.23 4.56 C2.65 3.95, 1.07 3.33, -0.15 2.86 M4.23 4.56 C3.31 4.21, 2.4 3.85, -0.15 2.86 M-0.15 2.86 C-0.1 1.95, -0.05 1.04, 0 0 M-0.15 2.86 C-0.12 2.27, -0.09 1.69, 0 0" stroke="#ffffff" stroke-width="2" fill="none"></path></g></g><mask></mask><g transform="translate(529.9243392944336 82.2004569564474) rotate(0 40.61608123779297 20)"><text x="40.61608123779297" y="0" font-family="Virgil, Segoe UI Emoji" font-size="16px" fill="#000000" text-anchor="middle" style="white-space: pre;" direction="ltr" dominant-baseline="text-before-edge">Amazon</text><text x="40.61608123779297" y="20" font-family="Virgil, Segoe UI Emoji" font-size="16px" fill="#000000" text-anchor="middle" style="white-space: pre;" direction="ltr" dominant-baseline="text-before-edge">DynamoDB</text></g><g stroke-linecap="round" transform="translate(277.782387522248 12.984203248323752) rotate(0 30.98977226666227 29.72826386840802)"><path d="M43.59 2.99 C49.48 4.96, 55.58 10.24, 58.54 15.71 C61.51 21.19, 62.87 29.66, 61.35 35.84 C59.84 42.02, 54.63 49.02, 49.45 52.79 C44.27 56.56, 36.84 58.71, 30.29 58.46 C23.73 58.2, 15.2 55.54, 10.12 51.28 C5.03 47.01, 0.53 38.97, -0.22 32.86 C-0.96 26.75, 2 19.92, 5.63 14.62 C9.26 9.33, 14.84 3.02, 21.57 1.1 C28.29 -0.81, 41.72 2.35, 45.99 3.14 C50.27 3.93, 47.71 5.44, 47.21 5.84 M36.97 0 C43.31 0.91, 50.84 5.69, 55.11 10.65 C59.38 15.61, 62.61 23.15, 62.62 29.76 C62.62 36.37, 59.53 45.51, 55.14 50.3 C50.75 55.08, 43 57.73, 36.28 58.49 C29.57 59.24, 20.68 58.14, 14.85 54.81 C9.02 51.48, 3.43 44.21, 1.29 38.52 C-0.85 32.83, -0.59 26.59, 2 20.65 C4.58 14.72, 10.81 6.51, 16.82 2.9 C22.82 -0.7, 34.93 -0.66, 38.02 -0.99 C41.11 -1.31, 35.45 0.41, 35.37 0.94" stroke="none" stroke-width="0" fill="#e64980"></path><path d="M20.23 0.96 C26.17 -1.11, 36.54 0.56, 42.73 2.97 C48.92 5.38, 54.3 9.95, 57.38 15.43 C60.46 20.9, 62.35 29.43, 61.18 35.82 C60.01 42.2, 55.51 49.77, 50.37 53.74 C45.22 57.71, 36.81 59.96, 30.3 59.63 C23.78 59.31, 16.43 56.05, 11.28 51.82 C6.13 47.58, 0.55 40.51, -0.61 34.2 C-1.77 27.89, 0.45 19.45, 4.33 13.95 C8.21 8.45, 19.18 3.52, 22.68 1.22 C26.19 -1.09, 25.22 -0.25, 25.39 0.13 M43.69 1.63 C49.72 3.73, 54.95 9.96, 57.7 15.72 C60.45 21.48, 61.52 30.09, 60.17 36.19 C58.82 42.3, 54.72 48.4, 49.6 52.36 C44.49 56.33, 35.97 60.08, 29.47 59.99 C22.98 59.89, 15.33 56.1, 10.64 51.81 C5.95 47.52, 2.3 40.8, 1.34 34.24 C0.37 27.69, 1.61 17.88, 4.83 12.49 C8.05 7.1, 14.54 3.74, 20.68 1.9 C26.82 0.06, 38.11 1.41, 41.69 1.46 C45.27 1.51, 42.26 1.42, 42.18 2.2" stroke="#00000000" stroke-width="1" fill="none"></path></g><g stroke-linecap="round" transform="translate(275.525267865215 15.532340151330231) rotate(0 29.72826386840802 29.72826386840802)"><path d="M7.25 10.28 C7.25 10.28, 7.25 10.28, 7.25 10.28 M7.25 10.28 C7.25 10.28, 7.25 10.28, 7.25 10.28 M0.43 24.22 C5.78 18.06, 11.14 11.91, 19.45 2.34 M0.43 24.22 C5.58 18.29, 10.74 12.37, 19.45 2.34 M0.82 29.87 C9.85 19.49, 18.87 9.11, 26.41 0.43 M0.82 29.87 C6.82 22.97, 12.82 16.07, 26.41 0.43 M1.22 35.51 C10.16 25.22, 19.1 14.93, 31.4 0.79 M1.22 35.51 C9 26.55, 16.79 17.6, 31.4 0.79 M2.27 40.4 C11.07 30.28, 19.87 20.15, 36.38 1.15 M2.27 40.4 C10.51 30.92, 18.74 21.45, 36.38 1.15 M3.98 44.53 C11.47 35.91, 18.96 27.3, 40.72 2.27 M3.98 44.53 C13.26 33.85, 22.55 23.17, 40.72 2.27 M6.34 47.91 C18.46 33.97, 30.58 20.03, 44.39 4.14 M6.34 47.91 C20.84 31.23, 35.34 14.54, 44.39 4.14 M9.36 50.53 C21 37.14, 32.65 23.74, 48.06 6.01 M9.36 50.53 C20.58 37.62, 31.81 24.71, 48.06 6.01 M11.72 53.91 C25.96 37.54, 40.19 21.16, 51.08 8.63 M11.72 53.91 C22.36 41.67, 33 29.43, 51.08 8.63 M15.4 55.78 C27.58 41.77, 39.76 27.76, 53.45 12.01 M15.4 55.78 C30.37 38.56, 45.34 21.33, 53.45 12.01 M19.07 57.65 C26.44 49.17, 33.82 40.69, 55.81 15.39 M19.07 57.65 C32.47 42.23, 45.88 26.81, 55.81 15.39 M23.4 58.77 C34.67 45.81, 45.94 32.84, 57.52 19.52 M23.4 58.77 C32.83 47.93, 42.25 37.08, 57.52 19.52 M27.73 59.88 C38.27 47.75, 48.82 35.63, 59.22 23.66 M27.73 59.88 C35.91 50.47, 44.09 41.06, 59.22 23.66 M33.38 59.49 C39.57 52.36, 45.77 45.23, 59.62 29.3 M33.38 59.49 C39.68 52.24, 45.98 44.98, 59.62 29.3 M40.33 57.58 C45.07 52.13, 49.81 46.68, 59.36 35.7 M40.33 57.58 C47.73 49.07, 55.13 40.56, 59.36 35.7" stroke="#e64980" stroke-width="0.5" fill="none"></path><path d="M59.46 29.73 C59.46 31.45, 59.3 33.2, 59 34.89 C58.71 36.59, 58.25 38.28, 57.66 39.9 C57.08 41.51, 56.33 43.1, 55.47 44.59 C54.61 46.08, 53.61 47.52, 52.5 48.84 C51.4 50.16, 50.16 51.4, 48.84 52.5 C47.52 53.61, 46.08 54.61, 44.59 55.47 C43.1 56.33, 41.51 57.08, 39.9 57.66 C38.28 58.25, 36.59 58.71, 34.89 59 C33.2 59.3, 31.45 59.46, 29.73 59.46 C28.01 59.46, 26.26 59.3, 24.57 59 C22.87 58.71, 21.18 58.25, 19.56 57.66 C17.94 57.08, 16.35 56.33, 14.86 55.47 C13.37 54.61, 11.94 53.61, 10.62 52.5 C9.3 51.4, 8.06 50.16, 6.96 48.84 C5.85 47.52, 4.84 46.08, 3.98 44.59 C3.12 43.1, 2.38 41.51, 1.79 39.9 C1.2 38.28, 0.75 36.59, 0.45 34.89 C0.15 33.2, 0 31.45, 0 29.73 C0 28.01, 0.15 26.26, 0.45 24.57 C0.75 22.87, 1.2 21.18, 1.79 19.56 C2.38 17.94, 3.12 16.35, 3.98 14.86 C4.84 13.37, 5.85 11.94, 6.96 10.62 C8.06 9.3, 9.3 8.06, 10.62 6.96 C11.94 5.85, 13.37 4.84, 14.86 3.98 C16.35 3.12, 17.94 2.38, 19.56 1.79 C21.18 1.2, 22.87 0.75, 24.57 0.45 C26.26 0.15, 28.01 0, 29.73 0 C31.45 0, 33.2 0.15, 34.89 0.45 C36.59 0.75, 38.28 1.2, 39.9 1.79 C41.51 2.38, 43.1 3.12, 44.59 3.98 C46.08 4.84, 47.52 5.85, 48.84 6.96 C50.16 8.06, 51.4 9.3, 52.5 10.62 C53.61 11.94, 54.61 13.37, 55.47 14.86 C56.33 16.35, 57.08 17.94, 57.66 19.56 C58.25 21.18, 58.71 22.87, 59 24.57 C59.3 26.26, 59.38 28.87, 59.46 29.73 C59.53 30.59, 59.53 28.87, 59.46 29.73" stroke="#000000" stroke-width="1" fill="none"></path></g><g transform="translate(259.38832092285156 77.21625370812365) rotate(0 46.152099609375 20)"><text x="46.152099609375" y="0" font-family="Virgil, Segoe UI Emoji" font-size="16px" fill="#000000" text-anchor="middle" style="white-space: pre;" direction="ltr" dominant-baseline="text-before-edge">EventBridge</text><text x="46.152099609375" y="20" font-family="Virgil, Segoe UI Emoji" font-size="16px" fill="#000000" text-anchor="middle" style="white-space: pre;" direction="ltr" dominant-baseline="text-before-edge">Pipe</text></g><g stroke-linecap="round"><g transform="translate(285.26496096434084 31.908286054390146) rotate(0 8.06141695680543 0.023052369499595216)"><path d="M0 0 C1.05 -1.83, 2.1 -3.66, 4.02 -7.01 M0 0 C1.14 -1.98, 2.27 -3.96, 4.02 -7.01 M4.02 -7.01 C6.28 -7, 8.54 -6.99, 12.05 -6.97 M4.02 -7.01 C6.2 -7, 8.37 -6.99, 12.05 -6.97 M12.05 -6.97 C13.49 -4.5, 14.92 -2.03, 16.12 0.04 M12.05 -6.97 C13.01 -5.32, 13.96 -3.68, 16.12 0.04 M16.12 0.04 C14.95 2.07, 13.78 4.09, 12.17 6.88 M16.12 0.04 C15.1 1.8, 14.09 3.57, 12.17 6.88 M12.17 6.88 C10.09 6.93, 8 6.97, 4.08 7.06 M12.17 6.88 C10.22 6.92, 8.26 6.97, 4.08 7.06 M4.08 7.06 C3.25 5.62, 2.41 4.18, 0 0 M4.08 7.06 C3.05 5.27, 2.02 3.49, 0 0" stroke="#ffffff" stroke-width="2" fill="none"></path></g></g><mask></mask><g stroke-linecap="round"><g transform="translate(306.3209512735614 31.846807643983084) rotate(0 -1.8851222325878894 12.406123813067609)"><path d="M0 0 C1.43 0.1, 6.49 -0.31, 8.6 0.61 C10.71 1.53, 12.48 3.74, 12.66 5.53 C12.85 7.31, 11.64 10.15, 9.71 11.32 C7.78 12.49, 3.67 12.31, 1.08 12.53 C-1.51 12.76, -3.46 12.45, -5.82 12.66 C-8.17 12.87, -11.28 12.82, -13.05 13.8 C-14.82 14.78, -16.42 16.8, -16.45 18.54 C-16.48 20.28, -15.54 23.21, -13.23 24.24 C-10.92 25.26, -4.36 24.61, -2.59 24.69 M0 0 C1.43 0.1, 6.49 -0.31, 8.6 0.61 C10.71 1.53, 12.48 3.74, 12.66 5.53 C12.85 7.31, 11.64 10.15, 9.71 11.32 C7.78 12.49, 3.67 12.31, 1.08 12.53 C-1.51 12.76, -3.46 12.45, -5.82 12.66 C-8.17 12.87, -11.28 12.82, -13.05 13.8 C-14.82 14.78, -16.42 16.8, -16.45 18.54 C-16.48 20.28, -15.54 23.21, -13.23 24.24 C-10.92 25.26, -4.36 24.61, -2.59 24.69" stroke="#ffffff" stroke-width="2" fill="none"></path></g></g><mask></mask><g stroke-linecap="round"><g transform="translate(307.9676207093579 56.71390500967624) rotate(0 8.06141695680543 0.023052369499595216)"><path d="M0 0 C1.57 -2.74, 3.14 -5.48, 4.02 -7.01 M0 0 C1.25 -2.18, 2.5 -4.35, 4.02 -7.01 M4.02 -7.01 C6.23 -7, 8.43 -6.99, 12.05 -6.97 M4.02 -7.01 C7.07 -6.99, 10.11 -6.98, 12.05 -6.97 M12.05 -6.97 C12.98 -5.36, 13.92 -3.76, 16.12 0.04 M12.05 -6.97 C13.33 -4.77, 14.6 -2.58, 16.12 0.04 M16.12 0.04 C15.26 1.54, 14.39 3.04, 12.17 6.88 M16.12 0.04 C14.93 2.1, 13.74 4.16, 12.17 6.88 M12.17 6.88 C9.82 6.93, 7.47 6.98, 4.08 7.06 M12.17 6.88 C9.83 6.93, 7.48 6.98, 4.08 7.06 M4.08 7.06 C2.99 5.18, 1.91 3.3, 0 0 M4.08 7.06 C2.7 4.68, 1.33 2.3, 0 0" stroke="#ffffff" stroke-width="2" fill="none"></path></g></g><mask></mask><g stroke-linecap="round"><g transform="translate(88.54042053222656 53.15407345051034) rotate(0 19.94199850145327 -0.17031863698366578)"><path d="M0.09 0.07 C6.75 0.02, 33.26 -0.34, 39.93 -0.41 M-0.05 -0.02 C6.6 -0.04, 33.09 -0.22, 39.78 -0.24" stroke="#862e9c" stroke-width="1" fill="none"></path></g><g transform="translate(88.54042053222656 53.15407345051034) rotate(0 19.94199850145327 -0.17031863698366578)"><path d="M21.02 6.69 C25.81 4.83, 30.25 3.49, 39.78 -0.24 M21.02 6.69 C27.3 4.52, 33.26 2.17, 39.78 -0.24" stroke="#862e9c" stroke-width="1" fill="none"></path></g><g transform="translate(88.54042053222656 53.15407345051034) rotate(0 19.94199850145327 -0.17031863698366578)"><path d="M20.95 -6.99 C25.75 -5.46, 30.2 -3.41, 39.78 -0.24 M20.95 -6.99 C27.25 -4.69, 33.23 -2.56, 39.78 -0.24" stroke="#862e9c" stroke-width="1" fill="none"></path></g></g><mask></mask><g stroke-linecap="round"><g transform="translate(219.54042053222656 53.1002284782237) rotate(0 21.542329358632287 -1.0592645747094878)"><path d="M-0.04 0.01 C7.15 -0.31, 35.95 -1.57, 43.12 -1.91 M0.21 -0.12 C7.39 -0.48, 35.96 -1.84, 43.07 -2.13" stroke="#862e9c" stroke-width="1" fill="none"></path></g><g transform="translate(219.54042053222656 53.1002284782237) rotate(0 21.542329358632287 -1.0592645747094878)"><path d="M23.19 6.13 C29.36 3.82, 35.68 0.97, 43.07 -2.13 M23.19 6.13 C29.12 3.64, 35.27 1.27, 43.07 -2.13" stroke="#862e9c" stroke-width="1" fill="none"></path></g><g transform="translate(219.54042053222656 53.1002284782237) rotate(0 21.542329358632287 -1.0592645747094878)"><path d="M22.54 -8.58 C28.91 -6.33, 35.43 -4.62, 43.07 -2.13 M22.54 -8.58 C28.67 -6.61, 35.01 -4.5, 43.07 -2.13" stroke="#862e9c" stroke-width="1" fill="none"></path></g></g><mask></mask><g stroke-linecap="round"><g transform="translate(344.52058356873783 48.362496783435404) rotate(0 27.052602002328683 0.281539417942696)"><path d="M-0.1 0.08 C8.9 0.18, 44.9 0.48, 53.93 0.57 M0.11 0 C9.17 0.05, 45.22 0.29, 54.21 0.35" stroke="#862e9c" stroke-width="1" fill="none"></path></g><g transform="translate(344.52058356873783 48.362496783435404) rotate(0 27.052602002328683 0.281539417942696)"><path d="M28.76 9.42 C35.11 7.06, 41.31 5.14, 54.21 0.35 M28.76 9.42 C38.13 5.93, 47.86 2.63, 54.21 0.35" stroke="#862e9c" stroke-width="1" fill="none"></path></g><g transform="translate(344.52058356873783 48.362496783435404) rotate(0 27.052602002328683 0.281539417942696)"><path d="M28.89 -9.05 C35.2 -6.93, 41.38 -4.35, 54.21 0.35 M28.89 -9.05 C38.23 -5.64, 47.91 -2.03, 54.21 0.35" stroke="#862e9c" stroke-width="1" fill="none"></path></g></g><mask></mask><g stroke-linecap="round"><g transform="translate(474.54042053222656 48.1002284782237) rotate(0 28.45848310489606 0.05505666316884117)"><path d="M-0.01 0.15 C9.5 0.15, 47.6 0.01, 57.11 -0.04 M-0.19 0.09 C9.3 0.13, 47.52 0.15, 57.04 0.13" stroke="#862e9c" stroke-width="1" fill="none"></path></g><g transform="translate(474.54042053222656 48.1002284782237) rotate(0 28.45848310489606 0.05505666316884117)"><path d="M30.27 9.89 C39.93 6.68, 48.95 3.14, 57.04 0.13 M30.27 9.89 C35.96 7.77, 41.53 5.77, 57.04 0.13" stroke="#862e9c" stroke-width="1" fill="none"></path></g><g transform="translate(474.54042053222656 48.1002284782237) rotate(0 28.45848310489606 0.05505666316884117)"><path d="M30.26 -9.6 C39.91 -5.99, 48.93 -2.7, 57.04 0.13 M30.26 -9.6 C35.94 -7.58, 41.52 -5.45, 57.04 0.13" stroke="#862e9c" stroke-width="1" fill="none"></path></g></g><mask></mask></svg>